<svg width="67" height="67" viewBox="0 0 67 67" fill="none" xmlns="http://www.w3.org/2000/svg">
<g clip-path="url(#clip0_38_478)">
<path d="M31.7732 38.4336C30.1303 40.8558 28.5993 43.4835 27.8058 46.5297C27.7914 46.3494 27.7697 46.169 27.7625 45.9887C27.7553 45.8083 27.7625 45.5829 27.7625 45.3809C27.7355 44.2284 27.2504 43.7144 26.1179 43.7018C24.4985 43.6849 22.8785 43.6849 21.2578 43.7018C20.1758 43.7144 19.6943 44.2176 19.6709 45.2799C19.6601 45.8209 19.6547 46.362 19.6709 46.9031C19.707 47.794 20.2335 48.3351 21.1136 48.3459C22.8231 48.3657 24.5399 48.3892 26.2423 48.3297C26.7094 48.3134 27.1674 48.0104 27.6381 47.8373C27.1151 50.916 27.4848 54.0487 28.7075 57.1292C28.4172 57.1436 28.217 57.1616 28.0186 57.1616C20.8172 57.1616 13.6164 57.1616 6.41624 57.1616C3.31988 57.1616 0.92863 55.387 0.203682 52.5662C0.0648996 51.999 -0.00413834 51.4169 -0.00190042 50.833C-0.000698183 36.0006 -9.70656e-05 21.167 -9.70656e-05 6.33226C-9.70656e-05 2.68909 2.66887 0.00901774 6.30082 0C17.9132 0 29.525 0 41.1362 0C44.7141 0 47.3614 2.6422 47.4047 6.20962C47.4173 7.19796 47.4047 8.19352 47.4047 9.22154C45.6915 9.62554 44.4345 10.5904 43.7258 12.0892L40.6403 11.8313C40.6403 11.4706 40.6403 10.9818 40.6403 10.4948C40.6403 9.34238 40.0993 8.80492 38.9433 8.80131C35.119 8.80131 31.2935 8.80131 27.4668 8.80131H8.70109C7.23496 8.80131 6.76789 9.27384 6.76609 10.7419C6.76609 12.2713 6.76609 13.802 6.76609 15.3338C6.76609 16.69 7.23856 17.1662 8.58747 17.1662C17.7245 17.1662 26.8615 17.1662 35.9985 17.1662C36.5395 17.1662 36.8226 17.2275 36.9001 17.8876C37.0534 19.0689 37.7513 19.9941 38.6187 20.7895C38.9668 21.1087 39.3076 21.4352 39.5961 21.7075C38.9722 22.4289 38.4077 23.1071 37.8072 23.7563C37.6507 23.8698 37.4588 23.9235 37.2662 23.9078C35.8037 23.9205 34.3412 23.9078 32.8768 23.9078C31.7948 23.9078 31.2683 24.4273 31.2376 25.5148C31.2232 26.009 31.2214 26.5049 31.2376 27.0009C31.2755 28.0217 31.7786 28.5321 32.7975 28.552C34.0346 28.5736 35.2789 28.6349 36.507 28.5339C37.5403 28.4492 38.2148 28.7954 38.6566 29.7567C37.5746 31.0192 36.4745 32.3232 35.351 33.6055C35.1983 33.7288 35.0062 33.7929 34.81 33.7859C34.1356 33.8075 33.4593 33.7859 32.7849 33.7985C31.8165 33.8273 31.2827 34.3396 31.2394 35.3045C31.1913 35.8657 31.1955 36.4303 31.252 36.9908C31.3296 37.4308 31.5586 37.8493 31.7732 38.4336ZM12.1599 33.7949C11.3069 33.7949 10.4539 33.775 9.60096 33.7949C8.63616 33.8219 8.10778 34.363 8.08614 35.3153C8.07352 35.8762 8.06991 36.4389 8.08614 36.9998C8.11139 37.8709 8.63977 38.4426 9.51981 38.4552C11.2498 38.4841 12.9792 38.4841 14.7081 38.4552C15.5809 38.4426 16.1201 37.8817 16.1688 37.0124C16.1976 36.4713 16.1886 35.9303 16.1688 35.3892C16.1435 34.363 15.6007 33.8111 14.5782 33.7895C13.7775 33.7805 12.9678 33.7931 12.1599 33.7949ZM23.6761 38.4715H26.2351C27.1638 38.4264 27.703 37.9304 27.7517 37.0088C27.7896 36.4034 27.7896 35.7962 27.7517 35.1908C27.6958 34.3702 27.1873 33.8291 26.374 33.8129C24.6007 33.7768 22.8274 33.7768 21.0541 33.8129C20.2173 33.831 19.7178 34.4045 19.6835 35.2558C19.6619 35.7716 19.6691 36.2892 19.6835 36.805C19.6997 37.9376 20.2083 38.4534 21.33 38.4679C22.1054 38.4787 22.8917 38.4715 23.6761 38.4715ZM12.1527 23.9096C11.2997 23.9096 10.4467 23.8988 9.59375 23.9096C8.63977 23.9241 8.10598 24.4633 8.08614 25.4246C8.07292 25.9621 8.07292 26.5031 8.08614 27.0478C8.10778 27.9929 8.59649 28.5357 9.52882 28.552C11.2564 28.5808 12.9846 28.5808 14.7135 28.552C15.6314 28.5375 16.1381 27.9839 16.1742 27.046C16.194 26.5302 16.1904 26.0126 16.1742 25.4968C16.1471 24.4687 15.5989 23.9277 14.5746 23.9187C13.7685 23.9024 12.9606 23.9096 12.1527 23.9096ZM12.0824 48.3567C12.957 48.3567 13.8334 48.373 14.7081 48.3567C15.5502 48.3369 16.1093 47.8157 16.1634 46.9842C16.203 46.3566 16.203 45.7271 16.1634 45.0995C16.1147 44.3078 15.6224 43.7559 14.8487 43.7396C13.0333 43.7024 11.2156 43.7024 9.39538 43.7396C8.60551 43.7559 8.12221 44.3042 8.08975 45.0905C8.0663 45.673 8.07171 46.2574 8.08975 46.8417C8.10778 47.8012 8.63075 48.3441 9.59375 48.3603C10.4197 48.3712 11.251 48.3585 12.0824 48.3567ZM23.696 23.9096C22.8213 23.9096 21.9449 23.8916 21.0703 23.9096C20.8898 23.9046 20.7101 23.9358 20.5419 24.0016C20.3737 24.0674 20.2204 24.1663 20.0912 24.2925C19.962 24.4187 19.8595 24.5695 19.7898 24.7362C19.72 24.9028 19.6845 25.0817 19.6853 25.2623C19.6529 25.8683 19.6583 26.4761 19.6853 27.0803C19.7142 27.9929 20.1993 28.5231 21.1027 28.5375C22.8532 28.5688 24.6037 28.5688 26.3541 28.5375C27.1873 28.5231 27.6904 28.0181 27.7499 27.1885C27.7923 26.5616 27.7923 25.9325 27.7499 25.3056C27.6958 24.4236 27.1422 23.9205 26.2567 23.9078C25.4019 23.8988 24.549 23.9096 23.696 23.9096Z" fill="#1663B5"/>
<path d="M46.0216 47.0402H45.1235V45.417L46.0216 47.0402Z" fill="#1663B5"/>
<path d="M46.8115 48.4504L47.2172 49.1538H45.1235V48.4504H46.8115Z" fill="#1663B5"/>
<path d="M49.374 48.4504H51.4461V49.1538H49.7798L49.374 48.4504Z" fill="#1663B5"/>
<path d="M50.5715 50.5642H51.4462V52.1459L50.5715 50.5642Z" fill="#1663B5"/>
<path d="M64.4862 42.0336C62.2716 38.2209 59.4458 34.8645 56.5676 31.5477C56.115 31.0265 55.7074 30.7848 55.0294 31.0067C54.7426 31.1023 54.4054 31.0572 54.0898 31.0572C50.3557 31.0572 46.6203 31.0572 42.8838 31.0572C42.258 31.0572 41.6323 30.9508 41.0047 30.9399C40.7779 30.93 40.5557 31.006 40.3825 31.1528C37.2844 34.6065 34.3161 38.1613 31.9699 42.1887C28.0656 48.8888 28.9583 56.3158 34.4098 61.6562C38.2402 65.4111 42.9685 66.973 48.2614 66.9983C50.4932 67.0418 52.7166 66.7126 54.84 66.0243C59.4494 64.4931 63.1084 61.7445 65.3157 57.3547C67.945 52.1226 67.3643 46.9933 64.4862 42.0336ZM56.2737 48.4506H54.3513V49.154H56.2737V50.5643H54.3513V56.7595H51.4659L48.0053 50.5643H45.1199V56.7595H42.2183V50.5643H40.296V49.154H42.2183V48.4506H40.296V47.0402H42.2183V41.166H45.3165L48.5842 47.0402H51.4461V41.166H54.3513V47.0402H56.2737V48.4506Z" fill="#00CF5F"/>
<path d="M48.2759 21.2188C46.4094 21.2188 44.5411 21.235 42.6855 21.2007C42.3427 21.182 42.0157 21.0507 41.7549 20.8274C41.0841 20.2304 40.4619 19.5757 39.8362 18.9301C38.7812 17.8479 38.6532 16.3366 39.5044 15.1805C40.3555 14.0244 41.8487 13.7268 43.1868 14.4176C44.359 15.0218 45.1434 14.6899 45.5546 13.4112C45.9658 12.1325 47.037 11.3335 48.3173 11.3443C49.5617 11.3552 50.6148 12.1632 51.0134 13.413C51.4119 14.6629 52.2054 15.0218 53.3812 14.4176C54.6976 13.7413 56.1746 14.0298 57.0239 15.1282C57.9022 16.2626 57.8138 17.7866 56.7769 18.8832C56.1132 19.5866 55.4316 20.2737 54.7211 20.9284C54.5028 21.1036 54.2326 21.2013 53.9528 21.2061C52.0539 21.2296 50.1658 21.2188 48.2759 21.2188Z" fill="#00CF5F"/>
<path d="M48.2325 28.9019C46.2759 28.9019 44.3192 28.9019 42.3644 28.9019C40.6007 28.9019 39.3744 27.744 39.3871 26.1172C39.3997 24.5211 40.6206 23.3849 42.3464 23.3831C46.3053 23.3831 50.2625 23.3831 54.2178 23.3831C55.9328 23.3831 57.1609 24.5409 57.1681 26.1335C57.1753 27.726 55.9436 28.8947 54.2359 28.9019C52.2342 28.9073 50.2324 28.9019 48.2325 28.9019Z" fill="#00CF5F"/>
</g>
<defs>
<clipPath id="clip0_38_478">
<rect width="67" height="67" fill="white"/>
</clipPath>
</defs>
</svg>
