<svg width="229" height="63" viewBox="0 0 229 63" fill="none" xmlns="http://www.w3.org/2000/svg">
<g clip-path="url(#clip0_131_3)">
<path d="M31.5 0C5.63114 0 0 5.63114 0 31.4868C0 57.3424 5.63114 63 31.5 63C57.3689 63 63 57.3556 63 31.4868C63 5.61792 57.3689 0 31.5 0ZM42.9606 36.6156L19.167 47.9704L18.321 45.5117L37.4087 34.038L33.5621 31.9494V26.1068L42.9606 31.196V36.6156ZM25.5913 28.9488L29.4511 31.0373V36.88L20.0527 31.7908V26.4373L43.8462 15.0692L44.679 17.5411L25.5913 28.9488Z" fill="white"/>
</g>
<g clip-path="url(#clip1_131_3)">
<path d="M82.8266 18.7719H77V14.3215H93.5872V18.7719H87.7978V34.7068H82.839L82.8266 18.7719Z" fill="white"/>
<path d="M102.699 35.0158C101.397 35.0069 100.101 34.8324 98.8435 34.4966C97.3564 34.0905 95.9304 33.4876 94.6038 32.704L95.8435 28.6987C96.3393 28.983 96.8848 29.2797 97.4675 29.5641C98.0532 29.85 98.6531 30.1058 99.265 30.3305C99.8654 30.5474 100.478 30.729 101.1 30.8744C101.665 31.0039 102.243 31.0702 102.823 31.0722C103.154 31.0739 103.484 31.0281 103.802 30.9363C104.079 30.8541 104.339 30.7244 104.571 30.553C104.781 30.4026 104.952 30.2031 105.067 29.972C105.179 29.7452 105.239 29.4957 105.24 29.2426C105.241 28.9728 105.169 28.7078 105.03 28.4762C104.854 28.2039 104.627 27.9687 104.36 27.7839C103.966 27.5177 103.551 27.2822 103.121 27.0793C102.625 26.832 102.005 26.56 101.286 26.2386C100.567 25.9172 99.7361 25.5463 98.9923 25.1878C98.2854 24.8356 97.6236 24.3998 97.0212 23.8898C96.4377 23.3962 95.9539 22.7962 95.5955 22.122C95.2345 21.3485 95.0564 20.5026 95.0748 19.6496C95.0554 18.8131 95.2563 17.9862 95.6575 17.2513C96.0476 16.5552 96.5848 15.952 97.2319 15.4835C97.9584 14.9765 98.7681 14.6 99.6246 14.3709C100.571 14.1183 101.546 13.9936 102.525 14.0001C103.223 13.9951 103.92 14.0489 104.608 14.1608C105.233 14.2534 105.85 14.3897 106.455 14.5687C107.004 14.7305 107.542 14.9245 108.067 15.1498C108.55 15.3597 109.022 15.5949 109.48 15.8544L108.24 19.7608C107.81 19.5045 107.363 19.2773 106.902 19.0809C106.393 18.8584 105.885 18.6606 105.352 18.4875C104.848 18.324 104.335 18.1919 103.815 18.092C103.378 18.0004 102.934 17.9507 102.488 17.9436C101.915 17.9182 101.346 18.0462 100.839 18.3145C100.639 18.4294 100.475 18.5979 100.365 18.8011C100.255 19.0043 100.205 19.2339 100.22 19.4642C100.215 19.7441 100.312 20.0162 100.492 20.2306C100.717 20.4881 100.981 20.7091 101.273 20.8858C101.672 21.124 102.086 21.3347 102.513 21.5163L104.125 22.2209C105.01 22.5862 105.875 22.9988 106.716 23.4571C107.428 23.8676 108.087 24.366 108.674 24.9406C109.201 25.4707 109.622 26.0958 109.914 26.7826C110.223 27.5352 110.375 28.3429 110.36 29.1561C110.364 29.9736 110.169 30.7798 109.79 31.5049C109.398 32.2311 108.852 32.8638 108.191 33.3592C107.466 33.9119 106.647 34.3305 105.773 34.5955C104.777 34.8956 103.74 35.0374 102.699 35.0158Z" fill="white"/>
<path d="M127.258 35.0158C125.955 35.0069 124.66 34.8324 123.402 34.4966C121.914 34.1041 120.484 33.518 119.15 32.7535L120.39 28.7481C120.885 29.0325 121.419 29.3292 122.014 29.6135C122.599 29.8994 123.199 30.1552 123.811 30.38C124.412 30.5969 125.024 30.7785 125.646 30.9239C126.211 31.0533 126.789 31.1197 127.369 31.1217C127.7 31.1234 128.03 31.0776 128.348 30.9857C128.624 30.9009 128.884 30.7714 129.117 30.6025C129.324 30.4486 129.494 30.25 129.613 30.0215C129.726 29.7946 129.785 29.5452 129.787 29.2921C129.788 29.0222 129.715 28.7572 129.576 28.5256C129.4 28.2534 129.173 28.0182 128.906 27.8333C128.51 27.5699 128.096 27.3344 127.667 27.1287C127.158 26.8815 126.551 26.6095 125.832 26.2881C125.113 25.9667 124.282 25.5958 123.538 25.2373C122.851 24.8654 122.21 24.413 121.629 23.8898C121.055 23.3818 120.584 22.7692 120.241 22.0849C119.88 21.3114 119.702 20.4655 119.72 19.6125C119.701 18.776 119.902 17.9491 120.303 17.2142C120.689 16.5153 121.227 15.9113 121.877 15.4464C122.578 14.9585 123.358 14.5946 124.183 14.3709C125.129 14.1176 126.105 13.9928 127.084 14.0001C127.782 13.9951 128.478 14.0489 129.167 14.1608C129.787 14.252 130.401 14.3884 131.001 14.5687C131.554 14.7285 132.097 14.9225 132.625 15.1498C133.104 15.3601 133.572 15.5953 134.026 15.8544L132.787 19.7608C132.356 19.5045 131.909 19.2773 131.448 19.0809C130.939 18.8584 130.431 18.6606 129.898 18.4875C129.394 18.324 128.881 18.1919 128.361 18.092C127.925 18.0004 127.48 17.9507 127.034 17.9436C126.461 17.9182 125.892 18.0462 125.386 18.3145C125.185 18.4294 125.021 18.5979 124.911 18.8011C124.802 19.0043 124.751 19.2339 124.766 19.4642C124.761 19.7441 124.858 20.0162 125.038 20.2306C125.263 20.4881 125.527 20.7091 125.82 20.8858C126.216 21.1266 126.631 21.3373 127.059 21.5163L128.671 22.2209C129.552 22.5861 130.413 22.9988 131.249 23.4571C131.966 23.8613 132.625 24.3603 133.208 24.9406C133.738 25.4681 134.159 26.0938 134.448 26.7826C134.757 27.5352 134.909 28.3429 134.894 29.1561C134.898 29.9751 134.698 30.7822 134.311 31.5049C133.946 32.2379 133.426 32.8832 132.787 33.3963C132.041 33.953 131.201 34.3717 130.307 34.6325C129.317 34.9176 128.288 35.0469 127.258 35.0158Z" fill="white"/>
<path d="M150.663 20.1812L145.704 34.4347L145.233 35.5968C144.901 36.4623 144.423 37.2649 143.82 37.9703C143.291 38.5693 142.682 39.0934 142.01 39.528C141.402 39.9235 140.743 40.2353 140.051 40.4551C139.425 40.6472 138.787 40.8 138.142 40.9125L137.2 37.4017C137.584 37.3233 137.961 37.2158 138.328 37.0802C138.652 36.9724 138.963 36.8316 139.258 36.6599C139.536 36.4877 139.786 36.2753 140.002 36.0295C140.229 35.7496 140.421 35.4423 140.572 35.1147L140.857 34.4595L135.501 20.1812H140.683L142.828 27.5985L143.188 29.8978L143.51 27.5985L145.692 20.1812H150.663Z" fill="white"/>
<path d="M162.428 19.7732C163.222 19.7264 164.016 19.8662 164.746 20.1812C165.325 20.4622 165.82 20.8882 166.184 21.4174C166.544 21.934 166.793 22.5189 166.916 23.1357C167.048 23.7909 167.115 24.4577 167.114 25.1261V34.6573H162.304V26.1645C162.348 25.5723 162.176 24.9843 161.821 24.5079C161.647 24.3054 161.43 24.1445 161.185 24.0375C160.94 23.9305 160.674 23.88 160.407 23.8898C159.899 23.8941 159.4 24.0259 158.957 24.2731C158.4 24.6317 157.93 25.1088 157.581 25.67V34.7067H152.709V20.1812H155.56L156.626 23.0987C156.976 22.6135 157.365 22.1586 157.792 21.7388C158.19 21.3407 158.636 20.992 159.118 20.7004C159.596 20.4213 160.109 20.2052 160.643 20.0576C161.222 19.8835 161.823 19.7878 162.428 19.7732Z" fill="white"/>
<path d="M177.143 19.7979C178.129 19.7763 179.109 19.9616 180.019 20.3418C180.847 20.703 181.574 21.2586 182.139 21.9613C182.726 22.7332 183.148 23.6167 183.379 24.5573C183.676 25.7068 183.789 26.8959 183.714 28.0806H173.92C173.941 29.0162 174.333 29.9053 175.011 30.553C175.705 31.1275 176.589 31.4229 177.49 31.3813C177.909 31.3817 178.326 31.3277 178.73 31.2206C179.125 31.1132 179.507 30.964 179.871 30.7755C180.216 30.5942 180.547 30.3876 180.862 30.1574C181.16 29.9349 181.433 29.7247 181.668 29.5146L183.503 32.0488C183.177 32.4814 182.803 32.8755 182.387 33.2232C181.939 33.6063 181.443 33.9304 180.912 34.1875C180.331 34.4742 179.72 34.694 179.089 34.8427C178.376 34.9841 177.647 35.0422 176.92 35.0157C175.923 35.029 174.931 34.8615 173.994 34.5213C173.128 34.2156 172.34 33.7215 171.688 33.0749C171.022 32.3964 170.511 31.5826 170.188 30.689C169.809 29.6434 169.624 28.5373 169.643 27.4254C169.631 26.3773 169.82 25.3365 170.201 24.3595C170.541 23.4378 171.069 22.5961 171.75 21.8871C172.421 21.1989 173.227 20.6561 174.118 20.2924C175.084 19.9293 176.112 19.7612 177.143 19.7979ZM179.623 25.707C179.631 25.3216 179.559 24.9386 179.412 24.5821C179.291 24.3017 179.114 24.0492 178.891 23.8403C178.668 23.6442 178.406 23.4969 178.123 23.4077C177.817 23.3175 177.499 23.2717 177.18 23.2717C176.474 23.236 175.779 23.4554 175.222 23.8898C174.669 24.3575 174.282 24.9904 174.118 25.6947L179.623 25.707Z" fill="white"/>
<path d="M194.958 19.7979C195.379 19.7893 195.798 19.852 196.197 19.9833C196.536 20.1081 196.864 20.2611 197.177 20.4407L196.334 24.8293L195.553 24.4213C195.336 24.325 195.113 24.2465 194.883 24.1865C194.69 24.1278 194.49 24.0905 194.288 24.0752C194.094 24.0625 193.9 24.0625 193.706 24.0752C193.3 24.0834 192.899 24.1716 192.528 24.3348C192.078 24.541 191.66 24.8117 191.288 25.1384V34.7438H186.453V20.1811H189.305L190.296 22.9379C190.59 22.5278 190.913 22.1394 191.263 21.7758C191.613 21.413 191.995 21.0821 192.404 20.7869C192.787 20.5061 193.203 20.2736 193.644 20.0946C194.058 19.9104 194.504 19.8096 194.958 19.7979Z" fill="white"/>
<path d="M206.698 31.171C207.715 31.1534 208.73 31.2571 209.723 31.4801C210.482 31.6574 211.204 31.9671 211.855 32.3949C212.381 32.7677 212.807 33.2646 213.095 33.8412C213.378 34.4271 213.522 35.07 213.516 35.7203C213.532 36.5179 213.339 37.3059 212.958 38.0073C212.565 38.6816 212.017 39.2535 211.359 39.6762C210.599 40.1622 209.76 40.5135 208.88 40.7146C207.773 40.9587 206.641 41.0748 205.508 41.0607C204.355 41.0771 203.204 40.9736 202.074 40.7517C201.206 40.5858 200.369 40.2855 199.594 39.8616C198.999 39.5399 198.492 39.0771 198.119 38.5141C197.8 38.0066 197.633 37.4193 197.635 36.8205C197.63 36.4849 197.68 36.1507 197.784 35.8315C197.883 35.5566 198.03 35.3013 198.218 35.0774C198.407 34.856 198.629 34.6643 198.875 34.5088C199.138 34.3459 199.416 34.2092 199.706 34.1008C199.314 33.8491 198.974 33.5262 198.702 33.149C198.425 32.7546 198.282 32.2826 198.292 31.8015C198.294 31.4581 198.361 31.1182 198.491 30.8001C198.616 30.4881 198.788 30.1965 198.999 29.9348C199.216 29.6693 199.466 29.4326 199.743 29.2301C200.022 29.0193 200.316 28.8293 200.623 28.6615C199.947 28.2381 199.388 27.6513 198.999 26.9555C198.628 26.2299 198.453 25.4204 198.491 24.6067C198.483 23.882 198.636 23.1646 198.937 22.5051C199.218 21.8798 199.643 21.3292 200.177 20.898C200.788 20.4404 201.476 20.097 202.21 19.8843C203.11 19.6356 204.041 19.5149 204.974 19.5258C205.657 19.5211 206.338 19.5832 207.008 19.7113C207.586 19.8247 208.151 19.9987 208.694 20.2305L212.128 17.9929L213.851 20.6384L211.123 22.4557C211.441 23.1457 211.601 23.897 211.595 24.6561C211.602 25.3808 211.45 26.0983 211.148 26.7577C210.863 27.3769 210.439 27.9225 209.909 28.3524C209.286 28.821 208.579 29.1652 207.826 29.3661C206.93 29.6151 206.003 29.7358 205.074 29.7246C204.747 29.7434 204.42 29.7434 204.094 29.7246C203.784 29.7246 203.474 29.7246 203.189 29.6134C203.067 29.755 202.959 29.9082 202.867 30.0708C202.786 30.2052 202.743 30.359 202.743 30.5158C202.735 30.6237 202.76 30.7314 202.812 30.8258C202.865 30.9202 202.945 30.9972 203.041 31.0474C203.369 31.1855 203.726 31.2448 204.082 31.2205L206.698 31.171ZM205.557 37.6364C206.4 37.6681 207.241 37.5423 208.037 37.2656C208.264 37.1783 208.46 37.0262 208.601 36.8284C208.742 36.6305 208.822 36.3956 208.83 36.153C208.833 35.9585 208.775 35.768 208.664 35.6082C208.553 35.4485 208.394 35.3277 208.21 35.2629C207.721 35.0554 207.192 34.9583 206.66 34.9786H202.446C202.274 35.1161 202.12 35.2739 201.987 35.4483C201.88 35.6004 201.824 35.7819 201.826 35.9675C201.823 36.2206 201.889 36.4696 202.018 36.6875C202.147 36.9055 202.334 37.084 202.557 37.2037C203.311 37.5418 204.137 37.6904 204.962 37.6364H205.557ZM204.974 22.8018C204.429 22.7919 203.895 22.9566 203.45 23.2716C203.253 23.4472 203.101 23.6659 203.004 23.9105C202.907 24.1552 202.869 24.4189 202.892 24.6809C202.868 24.9338 202.906 25.1888 203.003 25.4237C203.1 25.6586 203.254 25.8661 203.45 26.0283C203.933 26.3037 204.48 26.4485 205.036 26.4485C205.593 26.4485 206.14 26.3037 206.623 26.0283C206.817 25.8649 206.968 25.6567 207.063 25.4219C207.158 25.1871 207.195 24.9328 207.169 24.6809C207.192 24.4177 207.153 24.1527 207.054 23.9077C206.955 23.6627 206.799 23.4447 206.599 23.2716C206.119 22.9556 205.549 22.8038 204.974 22.8389V22.8018Z" fill="white"/>
<path d="M229 20.1812L224.041 34.4347L223.57 35.5968C223.247 36.4669 222.768 37.2711 222.157 37.9703C221.635 38.5717 221.029 39.0962 220.359 39.528C219.75 39.9213 219.091 40.233 218.401 40.4551C217.774 40.6472 217.137 40.8 216.491 40.9125L215.549 37.4017C215.933 37.3233 216.31 37.2158 216.677 37.0802C217 36.9703 217.311 36.8295 217.607 36.6599C217.881 36.4875 218.128 36.275 218.339 36.0295C218.571 35.7502 218.766 35.4428 218.921 35.1147L219.206 34.4595L213.851 20.1812H219.033L221.177 27.5985L221.537 29.8978L221.859 27.6108L224.029 20.1812H229Z" fill="white"/>
<path d="M84.587 50.9877C84.2242 50.9917 83.8635 50.9331 83.5208 50.8146C83.2263 50.6978 82.957 50.5257 82.7274 50.3078C82.5088 50.0812 82.3399 49.8118 82.2315 49.5166C82 48.8605 82 48.1453 82.2315 47.4892C82.3447 47.2 82.5131 46.9355 82.7274 46.7104C82.9484 46.4667 83.2188 46.2729 83.5208 46.1417C83.8638 46.0242 84.2243 45.9656 84.587 45.9686C84.7148 45.9567 84.8434 45.9567 84.9713 45.9686C85.1055 45.9814 85.2383 46.0062 85.368 46.0428L85.7399 46.1664C85.856 46.21 85.968 46.2638 86.0746 46.3271L85.7523 47.3161C85.5961 47.2148 85.4244 47.1397 85.244 47.0936C85.0516 47.033 84.8507 47.0037 84.6489 47.0071C84.4553 47.0028 84.2623 47.032 84.0787 47.0936C83.9211 47.1546 83.7776 47.2472 83.6572 47.3656C83.542 47.4954 83.4535 47.6467 83.3968 47.8106C83.3289 48.0095 83.2954 48.2185 83.2977 48.4287C83.2995 48.6254 83.3287 48.821 83.3845 49.0097C83.4411 49.1774 83.5295 49.3326 83.6448 49.4671C83.7457 49.6324 83.892 49.7653 84.0663 49.8504C84.2512 49.9243 84.4499 49.958 84.6489 49.9492C84.7643 49.962 84.8807 49.962 84.9961 49.9492L85.3308 49.8504L85.6779 49.6773C85.7651 49.631 85.848 49.5772 85.9258 49.5166L86.2606 50.4561C86.1473 50.5404 86.027 50.6148 85.901 50.6786C85.7686 50.7417 85.6319 50.7954 85.4919 50.8393C85.3547 50.8879 85.2138 50.9251 85.0704 50.9506L84.587 50.9877Z" fill="white"/>
<path d="M90.4012 50.9876C90.0587 50.9908 89.7185 50.9321 89.397 50.8145C89.107 50.6974 88.845 50.5205 88.6284 50.2953C88.4167 50.0681 88.2486 49.8042 88.1325 49.5165C87.9089 48.8618 87.9176 48.1504 88.1573 47.5015C88.2734 47.2138 88.4415 46.9498 88.6532 46.7226C88.8698 46.4975 89.1318 46.3205 89.4218 46.2034C90.0682 45.956 90.7837 45.956 91.4301 46.2034C91.7223 46.3176 91.9881 46.4901 92.2111 46.7103C92.4298 46.9368 92.5987 47.2062 92.707 47.5015C92.8286 47.8211 92.8875 48.161 92.8806 48.5028C92.8888 48.8447 92.8298 49.1848 92.707 49.5041C92.6033 49.8016 92.4338 50.072 92.2111 50.2953C91.9945 50.5205 91.7326 50.6974 91.4425 50.8145C91.1089 50.935 90.756 50.9936 90.4012 50.9876ZM90.4012 49.9244C90.576 49.9312 90.75 49.8974 90.9095 49.8255C91.0555 49.7635 91.1834 49.6657 91.2814 49.5412C91.3941 49.4116 91.4785 49.2601 91.5293 49.0962C91.591 48.9088 91.6203 48.7123 91.6161 48.5152C91.6213 48.3139 91.5919 48.1132 91.5293 47.9218C91.4769 47.7548 91.3927 47.5995 91.2814 47.4644C91.1801 47.3433 91.053 47.2461 90.9095 47.18C90.7482 47.1141 90.5755 47.0805 90.4012 47.0811C90.231 47.0818 90.0626 47.1154 89.9053 47.18C89.7593 47.2421 89.6314 47.3399 89.5334 47.4644C89.4259 47.6002 89.3459 47.7555 89.2978 47.9218C89.2352 48.1132 89.2059 48.3139 89.2111 48.5152C89.2068 48.7123 89.2362 48.9088 89.2978 49.0962C89.3449 49.2591 89.4251 49.4105 89.5334 49.5412C89.6314 49.6657 89.7593 49.7635 89.9053 49.8255C90.0608 49.8959 90.2305 49.9298 90.4012 49.9244Z" fill="white"/>
<path d="M96.1163 47.8476L96.2031 48.2926V50.9134H94.9634V46.1416H96.1287L98.2114 49.2816L98.137 48.8366V46.1416H99.3147V50.9629H98.199L96.1163 47.8476Z" fill="white"/>
<path d="M103.369 50.9999C103.063 50.9944 102.759 50.9529 102.464 50.8763C102.107 50.7784 101.765 50.6329 101.447 50.4436L101.745 49.5041L102.129 49.7019C102.401 49.8383 102.688 49.9421 102.984 50.0109C103.12 50.0276 103.258 50.0276 103.393 50.0109H103.629C103.696 49.9882 103.759 49.9548 103.815 49.912C103.862 49.8759 103.9 49.8294 103.926 49.7761C103.939 49.7191 103.939 49.66 103.926 49.603C103.944 49.5467 103.944 49.4862 103.926 49.4299C103.892 49.3606 103.841 49.3011 103.778 49.2568L103.48 49.0961L103.034 48.9231L102.501 48.6758C102.331 48.5932 102.173 48.4893 102.03 48.3668C101.894 48.2425 101.781 48.0962 101.695 47.9341C101.611 47.7476 101.569 47.5451 101.571 47.3407C101.57 47.143 101.617 46.948 101.707 46.772C101.805 46.6105 101.936 46.4715 102.092 46.3641C102.254 46.2412 102.439 46.1529 102.637 46.1045C102.863 46.0431 103.097 46.0139 103.331 46.0179C103.492 46.0048 103.654 46.0048 103.815 46.0179C103.972 46.0436 104.125 46.0851 104.274 46.1416L104.645 46.2776L104.98 46.4383L104.695 47.3654C104.596 47.3654 104.497 47.2542 104.373 47.2047C104.252 47.152 104.127 47.1066 104.001 47.0687C103.884 47.0244 103.764 46.9913 103.641 46.9698H103.331C103.194 46.9679 103.058 46.9975 102.935 47.0564C102.888 47.0846 102.85 47.1247 102.824 47.1724C102.798 47.2202 102.785 47.274 102.786 47.3283C102.785 47.3627 102.791 47.397 102.803 47.4289C102.816 47.4608 102.836 47.4897 102.86 47.5138C102.912 47.575 102.975 47.6254 103.046 47.6621L103.331 47.8105L103.716 47.9835L104.323 48.2802C104.493 48.3764 104.648 48.4972 104.782 48.6387C104.913 48.7579 105.015 48.906 105.079 49.0714C105.157 49.2465 105.195 49.4364 105.191 49.6277C105.193 49.8216 105.146 50.0128 105.055 50.184C104.958 50.3566 104.827 50.508 104.67 50.629C104.501 50.7599 104.307 50.8565 104.1 50.9134C103.863 50.9822 103.615 51.0114 103.369 50.9999Z" fill="white"/>
<path d="M111.265 49.1085C111.268 49.3782 111.221 49.6462 111.129 49.8997C111.037 50.1277 110.893 50.3309 110.708 50.4931C110.52 50.6593 110.301 50.7855 110.063 50.864C109.496 51.0288 108.894 51.0288 108.327 50.864C108.089 50.7855 107.87 50.6593 107.683 50.4931C107.505 50.3268 107.366 50.1245 107.274 49.8997C107.182 49.6502 107.136 49.3865 107.137 49.1209V46.1416H108.377V49.1703C108.351 49.2801 108.351 49.3943 108.377 49.5041C108.412 49.6001 108.472 49.6852 108.55 49.7514C108.631 49.8302 108.728 49.8894 108.836 49.9244C108.959 49.9431 109.084 49.9431 109.208 49.9244C109.327 49.9434 109.448 49.9434 109.567 49.9244C109.674 49.8894 109.772 49.8302 109.852 49.7514C109.93 49.6852 109.99 49.6001 110.026 49.5041C110.072 49.3993 110.094 49.2849 110.088 49.1703V46.1416H111.265V49.1085Z" fill="white"/>
<path d="M113.596 46.1416H114.774V49.8503H116.745V50.901H113.596V46.1416Z" fill="white"/>
<path d="M119.026 47.1429H117.65V46.1416H121.629V47.1924H120.204V50.9629H118.964L119.026 47.1429Z" fill="white"/>
<path d="M125.757 49.9492H124.109L123.774 50.9134H122.534L124.319 46.1416H125.46L127.307 50.9629H126.067L125.757 49.9492ZM125.46 49.0591L124.914 47.452L124.357 49.0591H125.46Z" fill="white"/>
<path d="M130.369 47.8476L130.456 48.2926V50.9134H129.278V46.1416H130.444L132.526 49.2816L132.44 48.8366V46.1416H133.679V50.9629H132.44L130.369 47.8476Z" fill="white"/>
<path d="M138.303 50.9877C137.945 50.9917 137.588 50.9332 137.249 50.8146C136.952 50.7036 136.682 50.5308 136.456 50.3078C136.234 50.082 136.06 49.8126 135.948 49.5166C135.835 49.1907 135.781 48.8476 135.787 48.5029C135.778 48.157 135.837 47.8128 135.96 47.4892C136.064 47.1954 136.234 46.9291 136.456 46.7104C136.672 46.4615 136.944 46.2667 137.249 46.1417C137.592 46.0232 137.953 45.9647 138.316 45.9687C138.439 45.9567 138.564 45.9567 138.688 45.9687C138.822 45.9814 138.955 46.0062 139.084 46.0428L139.456 46.1664C139.572 46.21 139.684 46.2638 139.791 46.3272L139.481 47.3161C139.322 47.2193 139.151 47.1444 138.973 47.0936C138.776 47.0329 138.571 47.0037 138.365 47.0071C138.176 47.0016 137.986 47.0309 137.807 47.0936C137.646 47.1467 137.501 47.2404 137.386 47.3656C137.264 47.4929 137.171 47.6446 137.113 47.8106C137.05 48.0103 137.02 48.2193 137.026 48.4287C137.024 48.6249 137.049 48.8204 137.101 49.0097C137.157 49.1774 137.246 49.3327 137.361 49.4671C137.452 49.6273 137.585 49.7598 137.745 49.8504C137.93 49.9243 138.129 49.958 138.328 49.9493C138.448 49.9615 138.568 49.9615 138.688 49.9493L139.01 49.8627L139.307 49.7268C139.395 49.6805 139.478 49.6267 139.555 49.566L139.89 50.5056C139.779 50.5923 139.658 50.6669 139.531 50.7281L139.134 50.8888C138.992 50.9374 138.847 50.9746 138.7 51.0001C138.568 51.0062 138.435 51.002 138.303 50.9877Z" fill="white"/>
<path d="M143.089 49.0467L141.465 46.1416H142.816L143.609 47.761L143.708 48.0825L143.795 47.761L144.564 46.1416H145.915L144.266 49.0838V50.9629H143.089V49.0467Z" fill="white"/>
<path d="M152.411 51C152.102 50.9937 151.794 50.9522 151.494 50.8764C151.142 50.776 150.804 50.6305 150.49 50.4437L150.787 49.5041L151.171 49.7019C151.307 49.774 151.448 49.836 151.593 49.8874C151.734 49.9383 151.879 49.9796 152.027 50.011C152.163 50.0277 152.3 50.0277 152.436 50.011H152.671C152.738 49.9882 152.801 49.9548 152.857 49.9121C152.905 49.876 152.943 49.8295 152.969 49.7761C152.982 49.7191 152.982 49.66 152.969 49.603C152.987 49.5468 152.987 49.4863 152.969 49.43C152.935 49.3607 152.884 49.3012 152.82 49.2569L152.523 49.0962L152.089 48.8984L151.556 48.6512C151.386 48.5685 151.228 48.4647 151.085 48.3421C150.949 48.2178 150.836 48.0715 150.75 47.9094C150.666 47.7229 150.624 47.5205 150.626 47.316C150.625 47.1183 150.672 46.9233 150.762 46.7474C150.859 46.5891 150.985 46.4506 151.134 46.3394C151.302 46.2187 151.491 46.1307 151.692 46.0798C151.918 46.0184 152.152 45.9893 152.386 45.9933C152.547 45.9801 152.709 45.9801 152.87 45.9933C153.018 46.0103 153.163 46.0435 153.304 46.0922L153.688 46.2282L154.023 46.3889L153.725 47.316C153.626 47.2549 153.522 47.2012 153.415 47.1553L153.043 47.0194C152.927 46.975 152.807 46.9419 152.684 46.9205H152.374C152.237 46.9185 152.101 46.9481 151.977 47.007C151.931 47.0353 151.892 47.0753 151.866 47.123C151.84 47.1708 151.827 47.2246 151.828 47.279C151.827 47.3133 151.833 47.3476 151.846 47.3795C151.859 47.4114 151.878 47.4403 151.903 47.4644C151.954 47.5256 152.018 47.576 152.089 47.6127L152.374 47.7611L152.758 47.9342L153.366 48.2308C153.55 48.3314 153.718 48.4608 153.861 48.6141C153.993 48.7332 154.095 48.8814 154.159 49.0467C154.237 49.2218 154.275 49.4117 154.271 49.603C154.272 49.7969 154.226 49.9882 154.134 50.1593C154.037 50.3319 153.907 50.4833 153.75 50.6044C153.58 50.7353 153.386 50.8318 153.18 50.8887C152.932 50.9701 152.672 51.0077 152.411 51Z" fill="white"/>
<path d="M156.341 46.1416H159.651V47.1924H157.469V48.033H158.994V48.9725H157.469V49.8503H159.787V50.901H156.341V46.1416Z" fill="white"/>
<path d="M164.436 50.9135L163.035 48.7007V50.9135H161.87V46.1417H163.494C163.793 46.1387 164.09 46.1846 164.374 46.2777C164.612 46.3659 164.833 46.4911 165.031 46.6486C165.203 46.8059 165.341 46.9948 165.44 47.2049C165.534 47.4192 165.581 47.651 165.577 47.8848C165.596 48.0367 165.596 48.1903 165.577 48.3422C165.526 48.4799 165.455 48.6091 165.366 48.7254C165.278 48.8471 165.169 48.9518 165.044 49.0345C164.919 49.1222 164.781 49.189 164.635 49.2323L165.874 50.963L164.436 50.9135ZM163.457 48.6142C163.564 48.6258 163.672 48.6258 163.779 48.6142C163.883 48.5826 163.979 48.5323 164.064 48.4658C164.14 48.4018 164.199 48.3215 164.238 48.231C164.264 48.1212 164.264 48.0069 164.238 47.8972C164.258 47.7993 164.258 47.6984 164.238 47.6005C164.198 47.5137 164.139 47.4375 164.064 47.378C163.988 47.3117 163.9 47.2612 163.804 47.2296C163.689 47.215 163.572 47.215 163.457 47.2296H163.035V48.6142H163.457Z" fill="white"/>
<path d="M166.878 46.1416H168.118L169.11 49.0591L169.209 49.5536L169.321 49.0591L170.288 46.1416H171.527L169.755 50.9629H168.651L166.878 46.1416Z" fill="white"/>
<path d="M173.499 46.1416H174.738V50.9629H173.499V46.1416Z" fill="white"/>
<path d="M179.362 50.9875C179 50.9915 178.639 50.933 178.296 50.8145C178.002 50.6976 177.732 50.5256 177.503 50.3076C177.284 50.0811 177.115 49.8117 177.007 49.5164C176.775 48.8604 176.775 48.1451 177.007 47.489C177.116 47.1976 177.284 46.9322 177.503 46.7102C177.729 46.4844 177.999 46.3077 178.296 46.191C178.639 46.0725 179 46.014 179.362 46.0179C179.49 46.0061 179.619 46.0061 179.747 46.0179C179.877 46.0307 180.005 46.0556 180.131 46.0921L180.515 46.2157C180.631 46.2593 180.743 46.3131 180.85 46.3764L180.528 47.3654C180.372 47.2642 180.2 47.189 180.019 47.1429C179.823 47.0814 179.618 47.0521 179.412 47.0564C179.222 47.053 179.034 47.0823 178.854 47.1429C178.696 47.2039 178.553 47.2965 178.433 47.4149C178.317 47.5448 178.229 47.696 178.172 47.8599C178.104 48.0589 178.071 48.2679 178.073 48.478C178.069 48.6752 178.098 48.8717 178.16 49.059C178.212 49.226 178.296 49.3813 178.408 49.5164C178.524 49.6427 178.668 49.74 178.829 49.8008C179.019 49.8736 179.221 49.9072 179.424 49.8997C179.54 49.9119 179.656 49.9119 179.771 49.8997L180.106 49.8131L180.391 49.6772C180.484 49.6338 180.571 49.5799 180.652 49.5164L180.986 50.456C180.871 50.5373 180.751 50.6116 180.627 50.6785C180.494 50.7416 180.358 50.7953 180.218 50.8392C180.077 50.8893 179.932 50.9265 179.784 50.9505C179.645 50.9748 179.504 50.9872 179.362 50.9875Z" fill="white"/>
<path d="M183.02 46.1416H186.33V47.1924H184.197V48.033H185.722V48.9725H184.197V49.8503H186.515V50.901H183.02V46.1416Z" fill="white"/>
<path d="M191.722 46.1416H192.887V49.8503H194.859V50.901H191.722V46.1416Z" fill="white"/>
<path d="M196.842 46.1416H198.082V50.9629H196.842V46.1416Z" fill="white"/>
<path d="M201.875 46.1416L203.016 48.8613L203.102 49.1951L203.202 48.8613L204.33 46.1416H205.755V50.9629H204.516V48.7377V47.8229L203.45 50.456H202.532L201.478 47.8229V48.7377V50.9629H200.239V46.1416H201.875Z" fill="white"/>
<path d="M208.198 46.1416H209.437V50.9629H208.198V46.1416Z" fill="white"/>
<path d="M212.747 47.1429H211.371V46.1416H215.289V47.1924H213.925V50.9629H212.685L212.747 47.1429Z" fill="white"/>
<path d="M217.297 46.1416H220.595V47.1924H218.462V48.033H219.987V48.9725H218.462V49.8503H220.805V50.901H217.322L217.297 46.1416Z" fill="white"/>
<path d="M222.864 46.1417H224.525C225.269 46.0868 226.009 46.3019 226.607 46.7475C226.852 46.9773 227.042 47.2585 227.164 47.5706C227.287 47.8828 227.338 48.2181 227.314 48.5523C227.338 48.8847 227.286 49.2182 227.164 49.5283C227.042 49.8384 226.852 50.1174 226.607 50.3449C226.005 50.7936 225.262 51.0129 224.512 50.963H222.926L222.864 46.1417ZM224.636 49.8504C224.821 49.8526 225.005 49.8276 225.182 49.7762C225.345 49.7316 225.494 49.6465 225.616 49.5289C225.745 49.4152 225.843 49.2706 225.901 49.1086C226.044 48.7089 226.044 48.2722 225.901 47.8724C225.843 47.7142 225.744 47.5736 225.616 47.4645C225.496 47.3532 225.352 47.2725 225.194 47.2296C225.013 47.179 224.825 47.1541 224.636 47.1554H224.041V49.8504H224.636Z" fill="white"/>
</g>
<defs>
<clipPath id="clip0_131_3">
<rect width="63" height="63" fill="white"/>
</clipPath>
<clipPath id="clip1_131_3">
<rect width="152" height="37" fill="white" transform="translate(77 14)"/>
</clipPath>
</defs>
</svg>
