<svg width="209" height="64" viewBox="0 0 209 64" fill="none" xmlns="http://www.w3.org/2000/svg">
<g clip-path="url(#clip0_131_2)">
<path d="M77.2516 22.2559H72V18.2867H86.9503V22.2559H81.7322V36.4681H77.2628L77.2516 22.2559Z" fill="black"/>
<path d="M95.1628 36.7437C93.9893 36.7358 92.8215 36.5802 91.6878 36.2807C90.3474 35.9185 89.0622 35.3808 87.8665 34.6819L88.9838 31.1096C89.4308 31.3632 89.9224 31.6278 90.4476 31.8814C90.9754 32.1364 91.5162 32.3646 92.0677 32.565C92.6089 32.7584 93.1611 32.9204 93.7214 33.0501C94.2309 33.1656 94.7518 33.2247 95.2746 33.2265C95.5732 33.228 95.8705 33.1872 96.1573 33.1052C96.4066 33.032 96.6411 32.9163 96.8501 32.7634C97.0396 32.6293 97.1931 32.4514 97.297 32.2452C97.3985 32.0429 97.452 31.8205 97.4534 31.5947C97.4543 31.354 97.3886 31.1177 97.2635 30.9111C97.1053 30.6683 96.9003 30.4585 96.6601 30.2937C96.3045 30.0563 95.9309 29.8462 95.5427 29.6652C95.0958 29.4447 94.5371 29.2021 93.889 28.9155C93.241 28.6288 92.4923 28.298 91.8219 27.9783C91.1848 27.6642 90.5883 27.2755 90.0453 26.8206C89.5194 26.3803 89.0833 25.8452 88.7603 25.2439C88.435 24.554 88.2744 23.7996 88.2911 23.0388C88.2735 22.2927 88.4546 21.5552 88.8162 20.8998C89.1678 20.2789 89.652 19.7409 90.2353 19.3231C90.89 18.8709 91.6199 18.5351 92.3918 18.3308C93.2444 18.1055 94.1238 17.9942 95.0064 18C95.6351 17.9956 96.2631 18.0435 96.8836 18.1433C97.4465 18.2259 98.0028 18.3475 98.5485 18.5072C99.0426 18.6514 99.5276 18.8245 100.001 19.0254C100.437 19.2127 100.862 19.4225 101.275 19.6539L100.157 23.138C99.7695 22.9093 99.3663 22.7067 98.9507 22.5316C98.4926 22.3331 98.0345 22.1567 97.554 22.0023C97.1 21.8565 96.6373 21.7387 96.1685 21.6495C95.7751 21.5678 95.3748 21.5235 94.9729 21.5172C94.4565 21.4945 93.9433 21.6087 93.4868 21.848C93.306 21.9504 93.1579 22.1008 93.0591 22.282C92.9604 22.4632 92.915 22.668 92.9281 22.8734C92.9239 23.123 93.0112 23.3658 93.1739 23.557C93.3764 23.7866 93.6139 23.9838 93.8779 24.1413C94.2368 24.3538 94.6102 24.5417 94.9952 24.7036L96.4478 25.3321C97.2458 25.6579 98.0254 26.0259 98.7831 26.4347C99.4256 26.8007 100.019 27.2453 100.549 27.7578C101.023 28.2305 101.402 28.788 101.666 29.4006C101.945 30.0718 102.082 30.7922 102.068 31.5175C102.072 32.2467 101.895 32.9657 101.554 33.6124C101.201 34.2601 100.709 34.8244 100.113 35.2663C99.459 35.7592 98.721 36.1326 97.9339 36.3689C97.0359 36.6365 96.1007 36.763 95.1628 36.7437Z" fill="black"/>
<path d="M117.298 36.7437C116.124 36.7358 114.957 36.5802 113.823 36.2807C112.482 35.9306 111.193 35.4079 109.99 34.726L111.108 31.1537C111.555 31.4073 112.035 31.6719 112.572 31.9255C113.099 32.1805 113.64 32.4087 114.192 32.6091C114.733 32.8025 115.285 32.9645 115.845 33.0942C116.355 33.2097 116.876 33.2688 117.399 33.2706C117.697 33.2721 117.994 33.2313 118.281 33.1493C118.53 33.0737 118.764 32.9582 118.974 32.8076C119.161 32.6703 119.314 32.4932 119.421 32.2893C119.522 32.087 119.576 31.8646 119.577 31.6388C119.578 31.3982 119.513 31.1618 119.388 30.9552C119.229 30.7124 119.024 30.5026 118.784 30.3378C118.427 30.1028 118.054 29.8928 117.667 29.7093C117.209 29.4888 116.661 29.2462 116.013 28.9596C115.365 28.6729 114.616 28.3421 113.946 28.0224C113.326 27.6907 112.748 27.2872 112.225 26.8206C111.708 26.3675 111.283 25.8212 110.974 25.2108C110.648 24.5209 110.488 23.7665 110.504 23.0057C110.487 22.2596 110.668 21.5221 111.03 20.8667C111.378 20.2433 111.862 19.7046 112.449 19.29C113.08 18.8548 113.783 18.5303 114.527 18.3308C115.379 18.1048 116.259 17.9936 117.142 18C117.77 17.9956 118.398 18.0435 119.019 18.1433C119.578 18.2247 120.131 18.3463 120.672 18.5072C121.171 18.6497 121.66 18.8227 122.136 19.0254C122.568 19.213 122.989 19.4228 123.399 19.6539L122.281 23.138C121.893 22.9093 121.49 22.7067 121.075 22.5316C120.617 22.3331 120.158 22.1567 119.678 22.0023C119.224 21.8565 118.761 21.7387 118.292 21.6495C117.899 21.5678 117.499 21.5235 117.097 21.5172C116.581 21.4945 116.067 21.6087 115.611 21.848C115.43 21.9504 115.282 22.1008 115.183 22.282C115.084 22.4632 115.039 22.668 115.052 22.8734C115.048 23.123 115.135 23.3658 115.298 23.557C115.5 23.7866 115.738 23.9838 116.002 24.1413C116.36 24.3561 116.733 24.544 117.119 24.7036L118.572 25.3321C119.366 25.6578 120.142 26.0259 120.896 26.4347C121.542 26.7952 122.136 27.2402 122.661 27.7578C123.139 28.2282 123.518 28.7863 123.779 29.4006C124.058 30.0718 124.194 30.7922 124.181 31.5175C124.184 32.248 124.004 32.9678 123.656 33.6124C123.327 34.2662 122.858 34.8417 122.281 35.2994C121.609 35.7958 120.853 36.1693 120.047 36.4019C119.154 36.6561 118.227 36.7715 117.298 36.7437Z" fill="black"/>
<path d="M138.394 23.5129L133.924 36.2255L133.5 37.2619C133.2 38.0339 132.769 38.7497 132.226 39.3789C131.749 39.9131 131.2 40.3805 130.595 40.7681C130.047 41.1209 129.453 41.399 128.829 41.5951C128.265 41.7664 127.69 41.9026 127.109 42.003L126.259 38.8717C126.605 38.8018 126.945 38.706 127.276 38.585C127.568 38.4889 127.849 38.3632 128.114 38.2102C128.365 38.0566 128.591 37.8671 128.785 37.6478C128.99 37.3983 129.163 37.1241 129.299 36.8319L129.556 36.2476L124.729 23.5129H129.399L131.332 30.1283L131.656 32.1791L131.947 30.1283L133.913 23.5129H138.394Z" fill="black"/>
<path d="M148.997 23.149C149.713 23.1073 150.429 23.2319 151.087 23.5129C151.608 23.7635 152.055 24.1434 152.383 24.6154C152.707 25.0761 152.932 25.5979 153.042 26.148C153.162 26.7324 153.222 27.327 153.221 27.9232V36.424H148.886V28.8493C148.925 28.3212 148.77 27.7967 148.45 27.3719C148.293 27.1912 148.098 27.0477 147.877 26.9523C147.656 26.8568 147.417 26.8118 147.176 26.8206C146.718 26.8244 146.269 26.9419 145.869 27.1624C145.367 27.4822 144.944 27.9077 144.629 28.4083V36.4681H140.237V23.5129H142.807L143.768 26.1149C144.083 25.6823 144.434 25.2765 144.818 24.9021C145.178 24.547 145.579 24.236 146.014 23.9759C146.445 23.727 146.907 23.5343 147.388 23.4026C147.911 23.2473 148.452 23.162 148.997 23.149Z" fill="black"/>
<path d="M162.261 23.1711C163.15 23.1518 164.033 23.3171 164.853 23.6562C165.599 23.9783 166.254 24.4739 166.764 25.1006C167.292 25.789 167.673 26.577 167.881 27.416C168.149 28.4411 168.251 29.5017 168.183 30.5583H159.356C159.375 31.3928 159.728 32.1858 160.339 32.7634C160.965 33.2758 161.761 33.5393 162.574 33.5022C162.951 33.5026 163.326 33.4544 163.691 33.3588C164.047 33.2631 164.392 33.13 164.719 32.9619C165.03 32.8002 165.329 32.6159 165.613 32.4106C165.881 32.2122 166.127 32.0247 166.339 31.8373L167.993 34.0976C167.699 34.4834 167.362 34.8348 166.987 35.145C166.583 35.4867 166.136 35.7757 165.658 36.005C165.134 36.2607 164.583 36.4568 164.015 36.5894C163.372 36.7155 162.715 36.7673 162.06 36.7437C161.161 36.7556 160.267 36.6061 159.423 36.3027C158.642 36.0301 157.932 35.5895 157.344 35.0127C156.744 34.4076 156.283 33.6818 155.992 32.8847C155.65 31.9521 155.483 30.9657 155.501 29.9739C155.49 29.0391 155.66 28.1109 156.004 27.2396C156.31 26.4175 156.786 25.6667 157.4 25.0344C158.005 24.4206 158.732 23.9365 159.534 23.6121C160.405 23.2883 161.331 23.1383 162.261 23.1711ZM164.496 28.4414C164.503 28.0976 164.438 27.756 164.306 27.438C164.197 27.1879 164.037 26.9627 163.836 26.7765C163.635 26.6016 163.399 26.4701 163.143 26.3906C162.868 26.3101 162.582 26.2693 162.294 26.2693C161.658 26.2374 161.031 26.4332 160.529 26.8206C160.031 27.2377 159.682 27.8022 159.534 28.4303L164.496 28.4414Z" fill="black"/>
<path d="M178.317 23.1711C178.696 23.1634 179.074 23.2193 179.435 23.3365C179.74 23.4478 180.035 23.5842 180.317 23.7444L179.557 27.6585L178.854 27.2947C178.659 27.2088 178.457 27.1387 178.25 27.0852C178.076 27.0328 177.896 26.9996 177.714 26.986C177.539 26.9746 177.364 26.9746 177.189 26.986C176.823 26.9932 176.462 27.0719 176.127 27.2175C175.721 27.4014 175.345 27.6428 175.01 27.9342V36.5012H170.652V23.5129H173.222L174.116 25.9716C174.381 25.6058 174.672 25.2595 174.987 24.9352C175.303 24.6116 175.647 24.3164 176.015 24.0531C176.361 23.8027 176.736 23.5953 177.133 23.4357C177.506 23.2714 177.909 23.1815 178.317 23.1711Z" fill="black"/>
<path d="M188.899 33.3147C189.815 33.299 190.731 33.3916 191.625 33.5904C192.309 33.7485 192.96 34.0247 193.547 34.4063C194.021 34.7388 194.405 35.182 194.664 35.6963C194.919 36.2188 195.049 36.7922 195.044 37.3722C195.058 38.0836 194.885 38.7864 194.541 39.412C194.187 40.0134 193.693 40.5234 193.1 40.9004C192.415 41.3339 191.659 41.6473 190.865 41.8266C189.867 42.0443 188.848 42.1479 187.826 42.1353C186.787 42.1499 185.75 42.0576 184.731 41.8597C183.948 41.7118 183.194 41.4439 182.496 41.0658C181.96 40.7789 181.503 40.3661 181.166 39.864C180.879 39.4113 180.728 38.8875 180.731 38.3535C180.725 38.0542 180.771 37.7561 180.865 37.4714C180.954 37.2262 181.086 36.9985 181.256 36.7989C181.426 36.6014 181.626 36.4304 181.848 36.2917C182.085 36.1464 182.336 36.0245 182.597 35.9278C182.244 35.7033 181.937 35.4153 181.692 35.0788C181.442 34.7271 181.313 34.3061 181.323 33.877C181.324 33.5708 181.385 33.2676 181.502 32.984C181.615 32.7057 181.769 32.4456 181.96 32.2122C182.155 31.9754 182.381 31.7642 182.63 31.5837C182.882 31.3957 183.147 31.2262 183.423 31.0765C182.814 30.6989 182.31 30.1756 181.96 29.555C181.625 28.9078 181.467 28.1858 181.502 27.4601C181.495 26.8137 181.632 26.1739 181.904 25.5857C182.157 25.028 182.54 24.5369 183.021 24.1524C183.572 23.7442 184.193 23.4379 184.854 23.2482C185.665 23.0264 186.504 22.9188 187.345 22.9285C187.96 22.9243 188.574 22.9797 189.178 23.0939C189.7 23.195 190.209 23.3503 190.698 23.557L193.793 21.5613L195.346 23.9208L192.888 25.5416C193.173 26.1571 193.318 26.8271 193.312 27.5042C193.319 28.1505 193.182 28.7904 192.91 29.3785C192.653 29.9308 192.27 30.4174 191.793 30.8009C191.232 31.2188 190.594 31.5258 189.915 31.705C189.108 31.9271 188.273 32.0347 187.435 32.0247C187.141 32.0415 186.846 32.0415 186.552 32.0247C186.273 32.0247 185.993 32.0247 185.736 31.9255C185.626 32.0518 185.529 32.1884 185.446 32.3334C185.373 32.4533 185.334 32.5905 185.334 32.7304C185.327 32.8266 185.349 32.9226 185.397 33.0068C185.444 33.091 185.516 33.1597 185.602 33.2045C185.899 33.3276 186.22 33.3805 186.541 33.3588L188.899 33.3147ZM187.871 39.0812C188.63 39.1095 189.388 38.9973 190.105 38.7504C190.31 38.6726 190.487 38.537 190.614 38.3605C190.741 38.184 190.813 37.9745 190.82 37.7581C190.823 37.5847 190.771 37.4147 190.671 37.2723C190.571 37.1298 190.427 37.022 190.262 36.9642C189.821 36.7792 189.344 36.6926 188.865 36.7107H185.066C184.912 36.8334 184.773 36.974 184.653 37.1296C184.556 37.2653 184.506 37.4272 184.507 37.5927C184.505 37.8184 184.565 38.0405 184.681 38.2349C184.797 38.4293 184.965 38.5885 185.167 38.6953C185.846 38.9968 186.591 39.1293 187.334 39.0812H187.871ZM187.345 25.8503C186.854 25.8415 186.372 25.9883 185.971 26.2693C185.794 26.4259 185.657 26.621 185.569 26.8392C185.482 27.0574 185.447 27.2926 185.468 27.5262C185.446 27.7518 185.481 27.9793 185.568 28.1888C185.656 28.3982 185.794 28.5834 185.971 28.728C186.407 28.9736 186.9 29.1028 187.401 29.1028C187.903 29.1028 188.396 28.9736 188.832 28.728C189.006 28.5822 189.142 28.3966 189.228 28.1872C189.314 27.9778 189.346 27.7509 189.323 27.5262C189.344 27.2915 189.309 27.0552 189.22 26.8367C189.13 26.6182 188.99 26.4237 188.809 26.2693C188.377 25.9875 187.863 25.8521 187.345 25.8834V25.8503Z" fill="black"/>
<path d="M209 23.5129L204.53 36.2255L204.106 37.2619C203.815 38.038 203.383 38.7553 202.832 39.3789C202.361 39.9153 201.816 40.383 201.212 40.7681C200.663 41.1189 200.069 41.3969 199.446 41.5951C198.882 41.7664 198.307 41.9026 197.726 42.003L196.876 38.8717C197.222 38.8018 197.562 38.706 197.893 38.585C198.184 38.4869 198.465 38.3614 198.731 38.2102C198.978 38.0564 199.201 37.8668 199.391 37.6478C199.6 37.3987 199.776 37.1246 199.916 36.8319L200.173 36.2476L195.346 23.5129H200.016L201.949 30.1283L202.273 32.1791L202.564 30.1393L204.519 23.5129H209Z" fill="black"/>
<path d="M78.8384 50.989C78.5114 50.9925 78.1863 50.9403 77.8774 50.8346C77.612 50.7304 77.3692 50.577 77.1623 50.3826C76.9653 50.1805 76.813 49.9402 76.7154 49.6769C76.5067 49.0918 76.5067 48.4538 76.7154 47.8687C76.8174 47.6108 76.9692 47.3749 77.1623 47.1741C77.3615 46.9568 77.6052 46.7839 77.8774 46.6669C78.1865 46.5621 78.5115 46.5099 78.8384 46.5125C78.9536 46.5019 79.0695 46.5019 79.1847 46.5125C79.3057 46.5239 79.4254 46.546 79.5423 46.5787L79.8775 46.6889C79.9822 46.7278 80.0831 46.7758 80.1792 46.8323L79.8887 47.7143C79.7479 47.624 79.5932 47.557 79.4306 47.5159C79.2572 47.4618 79.0761 47.4357 78.8942 47.4387C78.7197 47.4349 78.5457 47.461 78.3802 47.5159C78.2382 47.5703 78.1089 47.6529 78.0003 47.7584C77.8965 47.8743 77.8168 48.0092 77.7657 48.1554C77.7044 48.3328 77.6742 48.5192 77.6763 48.7067C77.6779 48.8821 77.7043 49.0565 77.7545 49.2249C77.8056 49.3744 77.8852 49.5129 77.9892 49.6328C78.0801 49.7802 78.212 49.8988 78.3691 49.9746C78.5358 50.0405 78.7148 50.0706 78.8942 50.0628C78.9982 50.0742 79.1031 50.0742 79.2071 50.0628L79.5088 49.9746L79.8216 49.8202C79.9002 49.779 79.975 49.731 80.0451 49.6769L80.3468 50.5149C80.2447 50.59 80.1363 50.6564 80.0228 50.7133C79.9034 50.7696 79.7802 50.8175 79.654 50.8567C79.5304 50.9 79.4033 50.9332 79.2741 50.9559L78.8384 50.989Z" fill="black"/>
<path d="M84.0786 50.989C83.7699 50.9918 83.4633 50.9395 83.1735 50.8346C82.9121 50.7302 82.676 50.5724 82.4808 50.3715C82.29 50.1689 82.1385 49.9335 82.0338 49.6769C81.8322 49.093 81.8401 48.4585 82.0562 47.8797C82.1608 47.6231 82.3123 47.3877 82.5031 47.1851C82.6984 46.9843 82.9344 46.8265 83.1959 46.722C83.7785 46.5013 84.4234 46.5013 85.006 46.722C85.2694 46.8239 85.5089 46.9777 85.7099 47.1741C85.907 47.3761 86.0592 47.6164 86.1569 47.8797C86.2665 48.1648 86.3196 48.468 86.3133 48.7728C86.3207 49.0777 86.2676 49.3811 86.1569 49.6659C86.0634 49.9312 85.9106 50.1723 85.7099 50.3715C85.5147 50.5724 85.2786 50.7302 85.0172 50.8346C84.7164 50.942 84.3984 50.9944 84.0786 50.989ZM84.0786 50.0408C84.2362 50.0468 84.393 50.0166 84.5367 49.9526C84.6683 49.8972 84.7836 49.81 84.8719 49.699C84.9735 49.5834 85.0496 49.4482 85.0954 49.302C85.151 49.1349 85.1774 48.9597 85.1736 48.7838C85.1783 48.6043 85.1518 48.4253 85.0954 48.2546C85.0482 48.1057 84.9723 47.9672 84.8719 47.8466C84.7806 47.7386 84.6661 47.652 84.5367 47.593C84.3914 47.5342 84.2357 47.5043 84.0786 47.5048C83.9252 47.5054 83.7734 47.5354 83.6316 47.593C83.5 47.6484 83.3847 47.7356 83.2964 47.8466C83.1995 47.9678 83.1274 48.1063 83.0841 48.2546C83.0277 48.4253 83.0013 48.6043 83.0059 48.7838C83.0021 48.9597 83.0285 49.1349 83.0841 49.302C83.1266 49.4473 83.1988 49.5824 83.2964 49.699C83.3847 49.81 83.5 49.8972 83.6316 49.9526C83.7718 50.0153 83.9247 50.0455 84.0786 50.0408Z" fill="black"/>
<path d="M89.2298 48.1884L89.308 48.5854V50.9228H88.1907V46.6669H89.241L91.1182 49.4674L91.0511 49.0705V46.6669H92.1126V50.9669H91.107L89.2298 48.1884Z" fill="black"/>
<path d="M95.7663 51C95.491 50.9951 95.2172 50.9581 94.9507 50.8897C94.629 50.8025 94.3208 50.6727 94.0344 50.5038L94.3026 49.6659L94.649 49.8423C94.894 49.964 95.1528 50.0565 95.42 50.1179C95.5424 50.1328 95.6662 50.1328 95.7887 50.1179H96.001C96.0613 50.0976 96.1179 50.0678 96.1686 50.0297C96.2112 49.9975 96.2456 49.956 96.2692 49.9085C96.2807 49.8576 96.2807 49.8049 96.2692 49.7541C96.2854 49.7039 96.2854 49.6499 96.2692 49.5997C96.2384 49.5379 96.1922 49.4848 96.1351 49.4454L95.8669 49.302L95.4647 49.1477L94.9842 48.9272C94.8313 48.8535 94.6887 48.7608 94.5596 48.6515C94.4376 48.5407 94.3356 48.4102 94.2579 48.2656C94.1822 48.0993 94.1441 47.9187 94.1462 47.7364C94.1454 47.5601 94.1876 47.3861 94.2691 47.2292C94.3572 47.0851 94.4752 46.9611 94.6155 46.8654C94.7616 46.7558 94.9289 46.677 95.1071 46.6338C95.3109 46.579 95.5216 46.553 95.7328 46.5566C95.8778 46.5449 96.0236 46.5449 96.1686 46.5566C96.3098 46.5795 96.4483 46.6165 96.582 46.6669L96.9172 46.7882L97.2189 46.9315L96.9619 47.7584C96.8725 47.7584 96.7831 47.6592 96.6714 47.6151C96.5622 47.5681 96.4503 47.5276 96.3362 47.4938C96.2313 47.4543 96.1228 47.4247 96.0122 47.4056H95.7328C95.6092 47.4039 95.4869 47.4303 95.3753 47.4828C95.3333 47.508 95.2987 47.5437 95.2752 47.5863C95.2517 47.6289 95.2399 47.6769 95.2412 47.7254C95.2401 47.756 95.2455 47.7866 95.257 47.815C95.2686 47.8435 95.286 47.8693 95.3082 47.8907C95.3547 47.9453 95.4117 47.9903 95.4758 48.0231L95.7328 48.1554L96.0792 48.3097L96.6267 48.5743C96.7798 48.6601 96.9191 48.7679 97.0401 48.8941C97.1588 49.0003 97.2506 49.1325 97.3083 49.28C97.3781 49.4361 97.4125 49.6055 97.4089 49.7761C97.4105 49.9491 97.3682 50.1196 97.286 50.2723C97.1987 50.4262 97.0809 50.5612 96.9396 50.6692C96.7866 50.786 96.612 50.8721 96.4256 50.9228C96.2116 50.9842 95.9889 51.0103 95.7663 51Z" fill="black"/>
<path d="M102.884 49.3131C102.886 49.5536 102.844 49.7926 102.761 50.0187C102.678 50.222 102.548 50.4033 102.381 50.5479C102.212 50.6962 102.015 50.8088 101.8 50.8787C101.289 51.0257 100.747 51.0257 100.236 50.8787C100.021 50.8088 99.8235 50.6962 99.6547 50.5479C99.4948 50.3997 99.3691 50.2192 99.286 50.0187C99.2036 49.7962 99.162 49.561 99.1631 49.3241V46.6669H100.28V49.3682C100.257 49.4661 100.257 49.568 100.28 49.6659C100.312 49.7515 100.366 49.8274 100.437 49.8864C100.509 49.9567 100.597 50.0095 100.694 50.0408C100.805 50.0574 100.918 50.0574 101.029 50.0408C101.136 50.0577 101.246 50.0577 101.353 50.0408C101.45 50.0095 101.538 49.9567 101.61 49.8864C101.681 49.8274 101.735 49.7515 101.767 49.6659C101.809 49.5724 101.828 49.4704 101.822 49.3682V46.6669H102.884V49.3131Z" fill="black"/>
<path d="M104.985 46.6669H106.046V49.9746H107.823V50.9118H104.985V46.6669Z" fill="black"/>
<path d="M109.879 47.56H108.638V46.6669H112.225V47.6041H110.94V50.9669H109.823L109.879 47.56Z" fill="black"/>
<path d="M115.946 50.0628H114.46L114.158 50.9228H113.041L114.65 46.6669H115.678L117.343 50.9669H116.225L115.946 50.0628ZM115.678 49.269L115.186 47.8356L114.683 49.269H115.678Z" fill="black"/>
<path d="M120.102 48.1884L120.181 48.5854V50.9228H119.119V46.6669H120.169L122.047 49.4674L121.968 49.0705V46.6669H123.086V50.9669H121.968L120.102 48.1884Z" fill="black"/>
<path d="M127.254 50.989C126.93 50.9926 126.609 50.9403 126.304 50.8346C126.036 50.7356 125.792 50.5815 125.589 50.3826C125.388 50.1812 125.232 49.9409 125.131 49.6769C125.029 49.3862 124.98 49.0802 124.985 48.7728C124.978 48.4643 125.031 48.1573 125.142 47.8687C125.235 47.6067 125.388 47.3691 125.589 47.1741C125.783 46.9521 126.028 46.7783 126.304 46.6669C126.613 46.5612 126.938 46.509 127.265 46.5125C127.376 46.5019 127.488 46.5019 127.6 46.5125C127.721 46.5239 127.841 46.546 127.957 46.5787L128.293 46.6889C128.397 46.7278 128.498 46.7758 128.594 46.8323L128.315 47.7143C128.172 47.6279 128.018 47.5612 127.857 47.5159C127.68 47.4617 127.495 47.4357 127.309 47.4387C127.138 47.4338 126.968 47.46 126.807 47.5159C126.661 47.5632 126.53 47.6468 126.427 47.7584C126.317 47.872 126.233 48.0073 126.181 48.1554C126.124 48.3335 126.097 48.5199 126.103 48.7066C126.101 48.8816 126.123 49.056 126.17 49.2249C126.221 49.3744 126.3 49.5129 126.404 49.6328C126.486 49.7757 126.606 49.8938 126.751 49.9746C126.917 50.0405 127.096 50.0706 127.276 50.0628C127.384 50.0737 127.492 50.0737 127.6 50.0628L127.89 49.9856L128.159 49.8643C128.237 49.8231 128.312 49.7751 128.382 49.721L128.684 50.559C128.583 50.6363 128.475 50.7029 128.36 50.7574L128.002 50.9008C127.875 50.9441 127.744 50.9773 127.611 51C127.492 51.0054 127.372 51.0018 127.254 50.989Z" fill="black"/>
<path d="M131.567 49.2579L130.103 46.6669H131.321L132.036 48.1113L132.125 48.3979L132.204 48.1113L132.896 46.6669H134.114L132.628 49.291V50.9669H131.567V49.2579Z" fill="black"/>
<path d="M139.969 51C139.69 50.9944 139.413 50.9574 139.142 50.8897C138.825 50.8002 138.521 50.6705 138.237 50.5038L138.505 49.6659L138.852 49.8423C138.974 49.9066 139.101 49.9619 139.232 50.0077C139.359 50.0531 139.49 50.09 139.623 50.1179C139.745 50.1328 139.869 50.1328 139.992 50.1179H140.204C140.264 50.0976 140.321 50.0678 140.371 50.0297C140.414 49.9975 140.448 49.956 140.472 49.9085C140.484 49.8576 140.484 49.8049 140.472 49.7541C140.488 49.7039 140.488 49.6499 140.472 49.5997C140.441 49.5379 140.395 49.4848 140.338 49.4454L140.07 49.302L139.679 49.1256L139.198 48.9051C139.045 48.8314 138.903 48.7388 138.774 48.6295C138.652 48.5186 138.55 48.3881 138.472 48.2436C138.396 48.0772 138.358 47.8967 138.36 47.7143C138.359 47.538 138.402 47.3641 138.483 47.2071C138.57 47.0659 138.684 46.9425 138.818 46.8433C138.97 46.7357 139.14 46.6571 139.321 46.6118C139.525 46.557 139.736 46.531 139.947 46.5346C140.092 46.5228 140.238 46.5228 140.383 46.5346C140.516 46.5498 140.647 46.5793 140.774 46.6228L141.12 46.7441L141.422 46.8874L141.154 47.7143C141.064 47.6598 140.971 47.6119 140.874 47.571L140.539 47.4497C140.434 47.4101 140.326 47.3806 140.215 47.3615H139.936C139.812 47.3598 139.69 47.3862 139.578 47.4387C139.536 47.4639 139.502 47.4996 139.478 47.5422C139.455 47.5848 139.443 47.6328 139.444 47.6813C139.443 47.7119 139.448 47.7424 139.46 47.7709C139.471 47.7994 139.489 47.8252 139.511 47.8466C139.558 47.9012 139.615 47.9462 139.679 47.979L139.936 48.1113L140.282 48.2656L140.83 48.5302C140.996 48.6199 141.147 48.7353 141.277 48.872C141.395 48.9783 141.487 49.1104 141.545 49.2579C141.615 49.4141 141.649 49.5834 141.645 49.7541C141.647 49.927 141.605 50.0976 141.522 50.2503C141.435 50.4042 141.317 50.5392 141.176 50.6472C141.023 50.7639 140.848 50.85 140.662 50.9008C140.439 50.9733 140.204 51.0069 139.969 51Z" fill="black"/>
<path d="M143.511 46.6669H146.495V47.6041H144.528V48.3538H145.902V49.1918H144.528V49.9746H146.618V50.9118H143.511V46.6669Z" fill="black"/>
<path d="M150.808 50.9228L149.545 48.9492V50.9228H148.495V46.6669H149.958C150.228 46.6641 150.496 46.7051 150.752 46.7882C150.966 46.8668 151.165 46.9785 151.344 47.1189C151.498 47.2592 151.623 47.4277 151.713 47.6151C151.797 47.8062 151.839 48.013 151.836 48.2215C151.853 48.357 151.853 48.494 151.836 48.6295C151.79 48.7522 151.726 48.8675 151.646 48.9713C151.566 49.0798 151.468 49.1732 151.355 49.2469C151.243 49.3251 151.118 49.3847 150.986 49.4233L152.104 50.9669L150.808 50.9228ZM149.925 48.872C150.021 48.8824 150.119 48.8824 150.215 48.872C150.309 48.8439 150.396 48.799 150.472 48.7397C150.54 48.6827 150.594 48.611 150.629 48.5302C150.652 48.4323 150.652 48.3304 150.629 48.2325C150.647 48.1452 150.647 48.0553 150.629 47.9679C150.593 47.8906 150.54 47.8226 150.472 47.7695C150.404 47.7103 150.324 47.6654 150.238 47.6372C150.134 47.6241 150.029 47.6241 149.925 47.6372H149.545V48.872H149.925Z" fill="black"/>
<path d="M153.009 46.6669H154.126L155.02 49.269L155.109 49.71L155.21 49.269L156.082 46.6669H157.199L155.601 50.9669H154.607L153.009 46.6669Z" fill="black"/>
<path d="M158.976 46.6669H160.093V50.9669H158.976V46.6669Z" fill="black"/>
<path d="M164.261 50.989C163.934 50.9925 163.609 50.9403 163.3 50.8346C163.034 50.7304 162.792 50.577 162.585 50.3826C162.388 50.1805 162.235 49.9402 162.138 49.6769C161.929 49.0918 161.929 48.4538 162.138 47.8687C162.236 47.6087 162.388 47.3721 162.585 47.1741C162.788 46.9727 163.032 46.815 163.3 46.711C163.609 46.6053 163.934 46.5531 164.261 46.5566C164.376 46.546 164.492 46.546 164.607 46.5566C164.724 46.568 164.84 46.5902 164.953 46.6228L165.3 46.733C165.405 46.7719 165.505 46.8199 165.602 46.8764L165.311 47.7584C165.17 47.6681 165.016 47.6011 164.853 47.56C164.676 47.5051 164.491 47.479 164.305 47.4828C164.135 47.4798 163.964 47.5059 163.803 47.56C163.661 47.6144 163.531 47.697 163.423 47.8025C163.319 47.9184 163.239 48.0533 163.188 48.1995C163.127 48.3769 163.097 48.5633 163.099 48.7508C163.095 48.9266 163.121 49.1018 163.177 49.269C163.224 49.4179 163.3 49.5564 163.4 49.6769C163.505 49.7895 163.635 49.8763 163.78 49.9305C163.951 49.9954 164.134 50.0255 164.317 50.0187C164.421 50.0297 164.525 50.0297 164.629 50.0187L164.931 49.9415L165.188 49.8202C165.272 49.7816 165.35 49.7335 165.423 49.6769L165.724 50.5149C165.621 50.5874 165.512 50.6537 165.4 50.7133C165.281 50.7696 165.158 50.8175 165.032 50.8567C164.905 50.9013 164.774 50.9345 164.641 50.9559C164.515 50.9776 164.388 50.9887 164.261 50.989Z" fill="black"/>
<path d="M167.557 46.6669H170.54V47.6041H168.618V48.3538H169.993V49.1918H168.618V49.9746H170.708V50.9118H167.557V46.6669Z" fill="black"/>
<path d="M175.401 46.6669H176.451V49.9746H178.228V50.9118H175.401V46.6669Z" fill="black"/>
<path d="M180.016 46.6669H181.133V50.9669H180.016V46.6669Z" fill="black"/>
<path d="M184.552 46.6669L185.58 49.0926L185.658 49.3902L185.748 49.0926L186.764 46.6669H188.049V50.9669H186.932V48.9823V48.1664L185.971 50.5149H185.144L184.195 48.1664V48.9823V50.9669H183.077V46.6669H184.552Z" fill="black"/>
<path d="M190.251 46.6669H191.368V50.9669H190.251V46.6669Z" fill="black"/>
<path d="M194.351 47.56H193.111V46.6669H196.642V47.6041H195.413V50.9669H194.295L194.351 47.56Z" fill="black"/>
<path d="M198.452 46.6669H201.424V47.6041H199.502V48.3538H200.877V49.1918H199.502V49.9746H201.614V50.9118H198.475L198.452 46.6669Z" fill="black"/>
<path d="M203.469 46.6669H204.966C205.638 46.6179 206.304 46.8098 206.843 47.2072C207.064 47.4122 207.235 47.663 207.345 47.9413C207.456 48.2197 207.502 48.5188 207.48 48.8169C207.502 49.1134 207.455 49.4108 207.345 49.6874C207.235 49.9639 207.064 50.2128 206.843 50.4156C206.301 50.8159 205.631 51.0114 204.955 50.9669H203.525L203.469 46.6669ZM205.067 49.9746C205.233 49.9766 205.399 49.9543 205.558 49.9085C205.706 49.8686 205.84 49.7928 205.95 49.6879C206.066 49.5865 206.154 49.4575 206.207 49.3131C206.335 48.9565 206.335 48.567 206.207 48.2105C206.154 48.0694 206.066 47.944 205.95 47.8466C205.842 47.7474 205.712 47.6755 205.57 47.6372C205.406 47.5921 205.237 47.5698 205.067 47.571H204.53V49.9746H205.067Z" fill="black"/>
</g>
<g clip-path="url(#clip1_131_2)">
<path d="M32 0C5.72052 0 0 5.72052 0 31.9866C0 58.2526 5.72052 64 32 64C58.2795 64 64 58.2661 64 31.9866C64 5.70709 58.2795 0 32 0ZM43.6425 37.1968L19.4713 48.7319L18.6118 46.2342L38.0025 34.5783L34.0948 32.4566V26.5212L43.6425 31.6911V37.1968ZM25.9975 29.4083L29.9186 31.53V37.4654L20.371 32.2954V26.8569L44.5422 15.3084L45.3882 17.8196L25.9975 29.4083Z" fill="#1663B5"/>
</g>
<defs>
<clipPath id="clip0_131_2">
<rect width="137" height="33" fill="white" transform="translate(72 18)"/>
</clipPath>
<clipPath id="clip1_131_2">
<rect width="64" height="64" fill="white"/>
</clipPath>
</defs>
</svg>
