<svg width="1440" height="302" viewBox="0 0 1440 302" fill="none" xmlns="http://www.w3.org/2000/svg">
<g clip-path="url(#clip0_131_4)">
<path d="M1380.02 273.965C1379.36 291.632 1321.95 303.908 1252.77 301.419C1183.58 298.931 1127.17 282.591 1127.83 265.007C1128.5 247.422 1185.4 235.146 1255.09 237.635C1324.77 240.123 1380.6 256.712 1380.02 273.965Z" fill="#1663B5"/>
<path d="M1128.82 233.017L1127.68 264.93L1379.88 273.956L1381.02 242.043L1128.82 233.017Z" fill="#1663B5"/>
<path d="M1381.18 242.031C1380.52 259.698 1323.53 271.974 1253.93 269.486C1184.33 266.997 1128.33 250.657 1128.99 232.99C1129.66 215.322 1186.57 203.047 1256.25 205.618C1325.93 208.189 1381.68 224.446 1381.18 242.031Z" fill="#1663B5"/>
<path opacity="0.4" d="M1381.18 242.031C1380.52 259.698 1323.53 271.974 1253.93 269.486C1184.33 266.997 1128.33 250.657 1128.99 232.99C1129.66 215.322 1186.57 203.047 1256.25 205.618C1325.93 208.189 1381.68 224.446 1381.18 242.031Z" fill="white"/>
<path d="M1365.09 240.123C1365 241.265 1364.53 242.345 1363.76 243.192C1356.13 232.243 1310.67 222.539 1255.92 220.548C1201.17 218.557 1154.63 224.944 1146.41 235.395C1145.73 234.485 1145.35 233.381 1145.34 232.243C1145.75 220.299 1195.11 212.171 1256.17 214.41C1317.22 216.65 1365.59 228.262 1365.09 240.123Z" fill="#1663B5"/>
<path opacity="0.4" d="M1365.09 240.123C1365 241.265 1364.53 242.345 1363.76 243.192C1356.13 232.243 1310.67 222.539 1255.92 220.548C1201.17 218.557 1154.63 224.944 1146.41 235.395C1145.73 234.485 1145.35 233.381 1145.34 232.243C1145.75 220.299 1195.11 212.171 1256.17 214.41C1317.22 216.65 1365.59 228.262 1365.09 240.123Z" fill="#1663B5"/>
<path opacity="0.4" d="M1363.85 243.275C1355.55 253.726 1309.43 259.864 1254.34 258.122C1199.26 256.38 1153.63 246.51 1146.5 235.478C1154.79 225.027 1200.75 218.889 1256 220.631C1311.25 222.373 1356.21 232.326 1363.85 243.275Z" fill="#1663B5"/>
<path d="M1427.06 289.144C1420.34 305.733 1362.68 297.023 1298.31 270.398C1233.93 243.773 1187.23 208.853 1193.95 192.596C1200.67 176.338 1258.41 184.301 1322.78 211.341C1387.16 238.381 1433.86 272.803 1427.06 289.144Z" fill="#1663B5"/>
<path d="M1206.19 163.132L1193.97 192.635L1427.12 289.193L1439.34 259.69L1206.19 163.132Z" fill="#1663B5"/>
<path d="M1439.75 259.615C1432.95 276.204 1375.29 267.495 1310.92 240.869C1246.54 214.244 1199.18 179.324 1206.23 163.067C1213.28 146.81 1270.6 154.773 1334.98 181.813C1399.35 208.853 1446.06 243.275 1439.75 259.615Z" fill="#1663B5"/>
<path opacity="0.4" d="M1439.75 259.615C1432.95 276.204 1375.29 267.495 1310.92 240.869C1246.54 214.244 1199.18 179.324 1206.23 163.067C1213.28 146.81 1270.6 154.773 1334.98 181.813C1399.35 208.853 1446.06 243.275 1439.75 259.615Z" fill="white"/>
<path d="M1424.98 252.316C1424.49 253.344 1423.67 254.186 1422.66 254.721C1419.43 241.782 1380.19 216.815 1329.25 195.747C1278.32 174.679 1232.77 164.477 1221.41 171.362C1221.08 170.281 1221.08 169.125 1221.41 168.044C1226.05 157.178 1275.41 166.717 1331.91 190.356C1388.4 213.995 1429.55 241.284 1424.98 252.316Z" fill="#1663B5"/>
<path opacity="0.4" d="M1424.98 252.316C1424.49 253.344 1423.67 254.186 1422.66 254.721C1419.43 241.782 1380.19 216.815 1329.25 195.747C1278.32 174.679 1232.77 164.477 1221.41 171.362C1221.08 170.281 1221.08 169.125 1221.41 168.044C1226.05 157.178 1275.41 166.717 1331.91 190.356C1388.4 213.995 1429.55 241.284 1424.98 252.316Z" fill="#1663B5"/>
<path opacity="0.4" d="M1422.66 254.721C1411.21 261.523 1365.84 251.486 1314.82 230.336C1263.8 209.185 1224.48 184.301 1221.32 171.362C1232.69 164.477 1278.07 174.596 1329.17 195.747C1380.27 216.898 1419.43 241.782 1422.66 254.721Z" fill="#1663B5"/>
<path d="M364.045 243.441C363.298 261.108 419.046 277.78 488.481 280.766C557.916 283.752 615.074 271.808 615.82 254.141C616.567 236.473 560.82 219.884 491.384 216.898C421.949 213.912 364.792 225.857 364.045 243.441Z" fill="#1663B5"/>
<path d="M365.398 211.491L364.044 243.396L616.173 254.094L617.527 222.189L365.398 211.491Z" fill="#1663B5"/>
<path d="M365.372 211.507C364.626 229.174 420.456 245.846 489.808 248.832C559.16 251.818 616.733 240.123 617.479 222.29C618.226 204.457 562.396 187.951 493.044 184.965C423.691 181.979 366.119 193.923 365.372 211.507Z" fill="#1663B5"/>
<path opacity="0.4" d="M365.372 211.507C364.626 229.174 420.456 245.846 489.808 248.832C559.16 251.818 616.733 240.123 617.479 222.29C618.226 204.457 562.396 187.951 493.044 184.965C423.691 181.979 366.119 193.923 365.372 211.507Z" fill="white"/>
<path d="M381.466 211.009C381.431 212.156 381.814 213.276 382.545 214.161C390.84 203.793 437.047 197.572 492.131 200.061C547.215 202.549 592.758 212.336 599.975 223.368C600.747 222.522 601.214 221.441 601.303 220.299C601.883 208.438 553.187 196.411 492.38 193.84C431.572 191.268 381.964 199.065 381.466 211.009Z" fill="#1663B5"/>
<path opacity="0.4" d="M381.466 211.009C381.431 212.156 381.814 213.276 382.545 214.161C390.84 203.793 437.047 197.572 492.131 200.061C547.215 202.549 592.758 212.336 599.975 223.368C600.747 222.522 601.214 221.441 601.303 220.299C601.883 208.438 553.187 196.411 492.38 193.84C431.572 191.268 381.964 199.065 381.466 211.009Z" fill="#1663B5"/>
<path opacity="0.4" d="M382.544 214.161C390.011 225.193 435.471 235.146 490.389 237.469C545.306 239.791 591.68 233.736 599.975 223.368C592.592 212.336 547.214 202.383 492.131 200.061C437.047 197.738 390.923 203.793 382.544 214.161Z" fill="#1663B5"/>
<path d="M337.499 195.167C336.752 212.751 392.582 229.423 461.934 232.409C531.287 235.395 588.859 223.534 589.606 205.867C590.352 188.199 534.522 171.528 465.17 168.541C395.818 165.555 338.245 177.5 337.499 195.167Z" fill="#1663B5"/>
<path d="M338.931 163.216L337.577 195.121L589.706 205.819L591.06 173.914L338.931 163.216Z" fill="#1663B5"/>
<path d="M338.909 163.233C338.162 180.817 393.993 197.489 463.345 200.475C532.697 203.461 590.269 191.517 591.016 173.767C591.763 156.017 535.932 139.428 466.58 136.442C397.228 133.456 339.656 145.566 338.909 163.233Z" fill="#1663B5"/>
<path opacity="0.4" d="M338.909 163.233C338.162 180.817 393.993 197.489 463.345 200.475C532.697 203.461 590.269 191.517 591.016 173.767C591.763 156.017 535.932 139.428 466.58 136.442C397.228 133.456 339.656 145.566 338.909 163.233Z" fill="white"/>
<path d="M354.92 162.652C354.948 163.789 355.325 164.889 355.998 165.804C364.294 155.436 410.584 149.215 465.585 151.704C520.585 154.192 566.295 163.98 573.429 175.011C574.237 174.213 574.736 173.156 574.839 172.025C575.337 160.081 526.558 148.054 465.751 145.483C404.943 142.911 355.5 150.708 354.92 162.652Z" fill="#1663B5"/>
<path opacity="0.4" d="M354.92 162.652C354.948 163.789 355.325 164.889 355.998 165.804C364.294 155.436 410.584 149.215 465.585 151.704C520.585 154.192 566.295 163.98 573.429 175.011C574.237 174.213 574.736 173.156 574.839 172.025C575.337 160.081 526.558 148.054 465.751 145.483C404.943 142.911 355.5 150.708 354.92 162.652Z" fill="#1663B5"/>
<path opacity="0.4" d="M355.998 165.473C363.547 176.504 408.925 186.458 463.843 188.78C518.76 191.103 565.382 185.379 573.595 175.011C566.295 163.98 520.834 154.026 465.751 151.704C410.667 149.381 364.46 155.436 355.998 165.473Z" fill="#1663B5"/>
<path d="M570.028 185.048C564.387 201.637 613.248 233.487 679.199 255.883C745.15 278.278 803.635 283.006 808.944 266.251C814.254 249.496 765.807 217.811 699.773 195.416C633.739 173.021 575.752 168.293 570.028 185.048Z" fill="#1663B5"/>
<path d="M580.339 154.796L570.051 185.028L808.958 266.3L819.245 236.068L580.339 154.796Z" fill="#1663B5"/>
<path d="M580.397 154.773C574.673 171.362 623.535 203.212 689.486 225.691C755.437 248.169 813.922 252.731 819.231 236.059C824.54 219.387 776.093 187.619 709.728 165.472C643.362 143.326 586.038 138.101 580.397 154.773Z" fill="#1663B5"/>
<path opacity="0.4" d="M580.397 154.773C574.673 171.362 623.535 203.212 689.486 225.691C755.437 248.169 813.922 252.731 819.231 236.059C824.54 219.387 776.093 187.619 709.728 165.472C643.362 143.326 586.038 138.101 580.397 154.773Z" fill="white"/>
<path d="M595.91 158.754C595.537 159.828 595.537 160.997 595.91 162.072C606.944 154.524 652.902 162.072 705.082 179.407C757.262 196.743 798.16 219.553 802.142 232.243C803.115 231.658 803.85 230.747 804.216 229.672C808.115 218.391 764.645 193.176 707.073 173.518C649.501 153.86 599.809 147.473 595.91 158.754Z" fill="#1663B5"/>
<path opacity="0.4" d="M595.91 158.754C595.537 159.828 595.537 160.997 595.91 162.072C606.944 154.524 652.902 162.072 705.082 179.407C757.262 196.743 798.16 219.553 802.142 232.243C803.115 231.658 803.85 230.747 804.216 229.672C808.115 218.391 764.645 193.176 707.073 173.518C649.501 153.86 599.809 147.473 595.91 158.754Z" fill="#1663B5"/>
<path opacity="0.4" d="M596.076 162.072C600.224 174.845 640.956 197.157 693.136 215.24C745.316 233.322 791.441 240.123 802.308 232.575C798.326 219.884 757.594 197.572 705.248 179.739C652.902 161.906 607.11 154.524 596.076 162.072Z" fill="#1663B5"/>
<path d="M951.465 264.26C950.718 281.844 1006.55 298.599 1075.9 301.502C1145.25 304.405 1202.49 292.544 1203.24 274.96C1203.99 257.376 1148.16 240.621 1078.8 237.635C1009.45 234.649 952.212 246.593 951.465 264.26Z" fill="#1663B5"/>
<path d="M952.818 232.39L951.464 264.295L1203.59 274.993L1204.95 243.088L952.818 232.39Z" fill="#1663B5"/>
<path d="M952.875 232.326C952.129 249.911 1007.96 266.665 1077.31 269.569C1146.66 272.472 1203.99 260.61 1204.73 243.026C1205.48 225.442 1149.65 208.687 1080.3 205.701C1010.95 202.715 953.622 214.659 952.875 232.326Z" fill="#1663B5"/>
<path opacity="0.4" d="M952.875 232.326C952.129 249.911 1007.96 266.665 1077.31 269.569C1146.66 272.472 1203.99 260.61 1204.73 243.026C1205.48 225.442 1149.65 208.687 1080.3 205.701C1010.95 202.715 953.622 214.659 952.875 232.326Z" fill="white"/>
<path d="M968.969 231.829C968.901 232.98 969.288 234.112 970.047 234.98C978.343 224.612 1024.55 218.391 1079.63 220.88C1134.72 223.368 1180.26 233.156 1187.48 244.187C1188.23 243.363 1188.7 242.314 1188.81 241.201C1189.3 229.257 1140.52 217.313 1079.72 214.659C1018.91 212.005 969.467 219.802 968.969 231.829Z" fill="#1663B5"/>
<path opacity="0.4" d="M968.969 231.829C968.901 232.98 969.288 234.112 970.047 234.98C978.343 224.612 1024.55 218.391 1079.63 220.88C1134.72 223.368 1180.26 233.156 1187.48 244.187C1188.23 243.363 1188.7 242.314 1188.81 241.201C1189.3 229.257 1140.52 217.313 1079.72 214.659C1018.91 212.005 969.467 219.802 968.969 231.829Z" fill="#1663B5"/>
<path opacity="0.4" d="M970.047 234.898C977.514 245.929 1022.97 255.883 1077.89 258.288C1132.81 260.693 1179.18 254.555 1187.48 244.104C1180.1 233.073 1134.63 223.119 1079.63 220.797C1024.63 218.474 978.426 224.529 970.047 234.898Z" fill="#1663B5"/>
<path d="M816.245 247.671C816.245 265.338 872.739 279.605 942.423 279.605C1012.11 279.605 1068.6 265.338 1068.6 247.671C1068.6 230.004 1012.11 215.737 942.423 215.737C872.739 215.737 816.245 230.004 816.245 247.671Z" fill="#1663B5"/>
<path d="M1068.6 215.737H816.245V247.671H1068.6V215.737Z" fill="#1663B5"/>
<path d="M816.245 215.737C816.245 233.322 872.739 247.671 942.423 247.671C1012.11 247.671 1068.6 233.322 1068.6 215.737C1068.6 198.153 1012.11 183.72 942.423 183.72C872.739 183.72 816.245 198.07 816.245 215.737Z" fill="#1663B5"/>
<path opacity="0.4" d="M816.245 215.737C816.245 233.322 872.739 247.671 942.423 247.671C1012.11 247.671 1068.6 233.322 1068.6 215.737C1068.6 198.153 1012.11 183.72 942.423 183.72C872.739 183.72 816.245 198.07 816.245 215.737Z" fill="white"/>
<path d="M832.338 214.493C832.361 215.619 832.771 216.703 833.5 217.562C841.547 206.945 887.339 198.651 942.423 198.651C997.506 198.651 1043.46 206.945 1051.35 217.396C1052.07 216.537 1052.48 215.453 1052.51 214.327C1052.51 202.383 1003.31 192.43 942.423 192.43C881.532 192.43 832.338 202.549 832.338 214.493Z" fill="#1663B5"/>
<path opacity="0.4" d="M832.338 214.493C832.361 215.619 832.771 216.703 833.5 217.562C841.547 206.945 887.339 198.651 942.423 198.651C997.506 198.651 1043.46 206.945 1051.35 217.396C1052.07 216.537 1052.48 215.453 1052.51 214.327C1052.51 202.383 1003.31 192.43 942.423 192.43C881.532 192.43 832.338 202.549 832.338 214.493Z" fill="#1663B5"/>
<path opacity="0.4" d="M833.5 217.562C841.795 228.262 887.339 236.308 942.423 236.308C997.506 236.308 1043.46 228.013 1051.35 217.562C1043.46 206.945 997.672 198.651 942.423 198.651C887.173 198.651 841.547 206.945 833.5 217.562Z" fill="#1663B5"/>
<path d="M702.428 210.097C701.681 227.764 757.511 244.436 826.863 247.422C896.216 250.408 953.539 238.464 954.286 220.88C955.032 203.295 899.202 186.541 829.85 183.555C760.498 180.568 703.174 192.513 702.428 210.097Z" fill="#1663B5"/>
<path d="M703.806 178.199L702.451 210.104L954.58 220.802L955.934 188.897L703.806 178.199Z" fill="#1663B5"/>
<path d="M703.755 178.246C703.008 195.83 758.838 212.502 828.191 215.488C897.543 218.474 954.866 206.53 955.613 188.946C956.359 171.362 900.529 154.607 831.177 151.621C761.825 148.635 704.501 160.579 703.755 178.246Z" fill="#1663B5"/>
<path opacity="0.4" d="M703.755 178.246C703.008 195.83 758.838 212.502 828.191 215.488C897.543 218.474 954.866 206.53 955.613 188.946C956.359 171.362 900.529 154.607 831.177 151.621C761.825 148.635 704.501 160.579 703.755 178.246Z" fill="white"/>
<path d="M719.848 177.665C719.848 178.807 720.228 179.915 720.927 180.817C729.223 170.449 775.43 164.228 830.513 166.717C885.597 169.205 931.14 178.993 938.358 190.024C939.175 189.241 939.651 188.169 939.685 187.038C940.183 175.094 891.404 163.067 830.596 160.496C769.789 157.925 720.346 165.473 719.848 177.665Z" fill="#1663B5"/>
<path opacity="0.4" d="M719.848 177.665C719.848 178.807 720.228 179.915 720.927 180.817C729.223 170.449 775.43 164.228 830.513 166.717C885.597 169.205 931.14 178.993 938.358 190.024C939.175 189.241 939.651 188.169 939.685 187.038C940.183 175.094 891.404 163.067 830.596 160.496C769.789 157.925 720.346 165.473 719.848 177.665Z" fill="#1663B5"/>
<path opacity="0.4" d="M720.927 180.817C728.476 191.849 773.853 201.802 828.771 204.125C883.689 206.447 930.062 200.392 938.358 190.024C930.974 178.993 885.597 169.039 830.513 166.717C775.43 164.394 729.388 170.449 720.927 180.817Z" fill="#1663B5"/>
<path d="M-12 228.013C-12.7467 245.68 43.0835 262.352 112.436 265.338C181.788 268.324 239.36 256.712 240.107 238.713C240.854 220.714 185.023 204.374 115.671 201.471C46.3189 198.568 -11.2534 210.346 -12 228.013Z" fill="#1663B5"/>
<path d="M-10.6494 196.145L-12.0035 228.051L240.125 238.749L241.48 206.843L-10.6494 196.145Z" fill="#1663B5"/>
<path d="M-10.6727 196.079C-11.4193 213.746 44.4109 230.418 113.763 233.404C183.115 236.39 240.688 224.446 241.434 206.945C242.181 189.444 186.351 172.606 116.998 169.703C47.6463 166.8 -9.92604 178.495 -10.6727 196.079Z" fill="#1663B5"/>
<path opacity="0.4" d="M-10.6727 196.079C-11.4193 213.746 44.4109 230.418 113.763 233.404C183.115 236.39 240.688 224.446 241.434 206.945C242.181 189.444 186.351 172.606 116.998 169.703C47.6463 166.8 -9.92604 178.495 -10.6727 196.079Z" fill="white"/>
<path d="M5.42102 195.582C5.45045 196.692 5.82764 197.766 6.49947 198.651C14.7952 188.282 61.0024 182.062 116.086 184.55C171.17 187.038 216.713 196.909 223.93 207.94C224.752 207.127 225.228 206.027 225.258 204.871C225.755 192.927 176.977 180.983 116.169 178.412C55.3613 175.841 5.91876 183.637 5.42102 195.582Z" fill="#1663B5"/>
<path opacity="0.4" d="M5.42102 195.582C5.45045 196.692 5.82764 197.766 6.49947 198.651C14.7952 188.282 61.0024 182.062 116.086 184.55C171.17 187.038 216.713 196.909 223.93 207.94C224.752 207.127 225.228 206.027 225.258 204.871C225.755 192.927 176.977 180.983 116.169 178.412C55.3613 175.841 5.91876 183.637 5.42102 195.582Z" fill="#1663B5"/>
<path opacity="0.4" d="M6.49951 198.65C14.0486 209.765 59.4262 219.719 114.344 222.041C169.262 224.363 215.635 218.308 223.93 207.94C216.547 196.909 171.17 186.872 116.086 184.55C61.0024 182.227 14.9611 188.282 6.49951 198.65Z" fill="#1663B5"/>
<path d="M97.6694 196.909C93.6045 214.078 145.204 241.035 213.063 257.127C280.922 273.218 339.075 272.389 343.14 255.302C347.205 238.215 295.605 211.092 227.829 195.001C160.053 178.91 101.734 179.739 97.6694 196.909Z" fill="#1663B5"/>
<path d="M105.071 165.794L97.6804 196.861L343.186 255.25L350.577 224.183L105.071 165.794Z" fill="#1663B5"/>
<path d="M105.053 165.472C100.988 182.642 152.67 209.599 220.446 225.774C288.222 241.948 346.458 241.035 350.523 223.866C354.588 206.696 303.237 179.988 235.212 163.897C167.188 147.805 109.2 148.883 105.053 165.472Z" fill="#1663B5"/>
<path opacity="0.4" d="M105.053 165.472C100.988 182.642 152.67 209.599 220.446 225.774C288.222 241.948 346.458 241.035 350.523 223.866C354.588 206.696 303.237 179.988 235.212 163.897C167.188 147.805 109.2 148.883 105.053 165.472Z" fill="white"/>
<path d="M120.731 168.293C120.365 169.368 120.365 170.535 120.731 171.61C131.018 163.316 177.391 165.804 231.065 178.578C284.738 191.351 328.125 209.765 333.351 221.958C334.284 221.31 334.937 220.332 335.176 219.221C337.996 207.609 292.37 186.624 233.139 172.523C173.907 158.422 123.718 156.68 120.731 168.293Z" fill="#1663B5"/>
<path opacity="0.4" d="M120.731 168.293C120.365 169.368 120.365 170.535 120.731 171.61C131.018 163.316 177.391 165.804 231.065 178.578C284.738 191.351 328.125 209.765 333.351 221.958C334.284 221.31 334.937 220.332 335.176 219.221C337.996 207.609 292.37 186.624 233.139 172.523C173.907 158.422 123.718 156.68 120.731 168.293Z" fill="#1663B5"/>
<path opacity="0.4" d="M121.395 171.61C126.704 183.886 169.427 202.3 223.018 215.074C276.608 227.847 323.23 230.584 333.351 221.958C328.125 209.765 285.484 191.351 231.728 178.578C177.972 165.804 131.682 163.067 121.395 171.61Z" fill="#1663B5"/>
<path d="M1333.9 215.24C1333.9 232.824 1277.4 247.173 1207.72 247.173C1138.04 247.173 1081.54 232.409 1081.54 215.24C1081.54 198.07 1138.04 182.808 1207.47 182.808C1276.91 182.808 1333.9 197.158 1333.9 215.24Z" fill="#1663B5"/>
<path d="M1333.9 182.808H1081.54V214.742H1333.9V182.808Z" fill="#1663B5"/>
<path d="M1333.9 182.808C1333.9 200.475 1277.4 214.825 1207.72 214.825C1138.04 214.825 1081.54 200.475 1081.54 182.808C1081.54 165.141 1138.04 150.874 1207.47 150.874C1276.91 150.874 1333.9 165.473 1333.9 182.808Z" fill="#1663B5"/>
<path opacity="0.4" d="M1333.9 182.808C1333.9 200.475 1277.4 214.825 1207.72 214.825C1138.04 214.825 1081.54 200.475 1081.54 182.808C1081.54 165.141 1138.04 150.874 1207.47 150.874C1276.91 150.874 1333.9 165.473 1333.9 182.808Z" fill="white"/>
<path d="M1317.8 181.564C1317.8 182.719 1317.39 183.835 1316.64 184.716C1308.35 174.016 1262.8 165.97 1207.72 165.97C1152.64 165.97 1106.68 173.767 1098.8 184.716C1098.05 183.835 1097.64 182.719 1097.64 181.564C1097.64 169.62 1146.83 159.749 1207.72 159.749C1268.61 159.749 1317.8 169.62 1317.8 181.564Z" fill="#1663B5"/>
<path opacity="0.4" d="M1317.8 181.564C1317.8 182.719 1317.39 183.835 1316.64 184.716C1308.35 174.016 1262.8 165.97 1207.72 165.97C1152.64 165.97 1106.68 173.767 1098.8 184.716C1098.05 183.835 1097.64 182.719 1097.64 181.564C1097.64 169.62 1146.83 159.749 1207.72 159.749C1268.61 159.749 1317.8 169.62 1317.8 181.564Z" fill="#1663B5"/>
<path opacity="0.4" d="M1316.64 184.716C1308.35 195.416 1262.8 203.461 1207.72 203.461C1152.64 203.461 1106.68 195.167 1098.8 184.716C1106.68 173.767 1152.47 165.97 1207.47 165.97C1262.47 165.97 1308.6 173.767 1316.64 184.716Z" fill="#1663B5"/>
<path d="M1011.77 192.678C1011.19 210.346 954.203 222.622 884.602 220.133C815 217.645 759.004 201.305 759.502 183.637C760 165.97 817.157 153.777 886.758 156.266C956.359 158.754 1012.44 175.094 1011.77 192.678Z" fill="#1663B5"/>
<path d="M760.733 151.742L759.591 183.656L1011.78 192.681L1012.93 160.768L760.733 151.742Z" fill="#1663B5"/>
<path d="M1012.94 160.745C1012.27 178.412 955.364 190.688 885.68 188.199C815.996 185.711 760.166 169.371 760.746 151.704C761.327 134.036 818.402 121.843 888.003 124C957.604 126.157 1013.6 143.16 1012.94 160.745Z" fill="#1663B5"/>
<path opacity="0.4" d="M1012.94 160.745C1012.27 178.412 955.364 190.688 885.68 188.199C815.996 185.711 760.166 169.371 760.746 151.704C761.327 134.036 818.402 121.843 888.003 124C957.604 126.157 1013.6 143.16 1012.94 160.745Z" fill="white"/>
<path d="M996.925 159.003C996.892 160.134 996.415 161.206 995.598 161.989C988.049 151.04 942.588 141.336 887.754 139.345C832.919 137.354 786.463 143.824 778.25 154.192C777.521 153.333 777.111 152.249 777.089 151.123C777.587 139.179 826.863 131.05 887.92 133.207C948.976 135.363 997.34 147.059 996.925 159.003Z" fill="#1663B5"/>
<path opacity="0.4" d="M996.925 159.003C996.892 160.134 996.415 161.206 995.598 161.989C988.049 151.04 942.588 141.336 887.754 139.345C832.919 137.354 786.463 143.824 778.25 154.192C777.521 153.333 777.111 152.249 777.089 151.123C777.587 139.179 826.863 131.05 887.92 133.207C948.976 135.363 997.34 147.059 996.925 159.003Z" fill="#1663B5"/>
<path opacity="0.4" d="M995.598 161.989C987.302 172.44 941.261 178.578 886.095 176.836C830.928 175.094 785.385 165.472 778.001 154.192C786.297 143.824 832.255 137.603 887.505 139.345C942.754 141.087 988.049 151.04 995.598 161.989Z" fill="#1663B5"/>
</g>
<g clip-path="url(#clip1_131_4)">
<path d="M959.646 65.9124C965.621 78.2415 967.807 92.0722 965.927 105.654C964.047 119.237 958.186 131.96 949.085 142.215C939.985 152.47 928.054 159.796 914.801 163.265C901.549 166.734 887.571 166.19 874.636 161.704C861.702 157.217 850.392 148.988 842.137 138.059C833.882 127.13 829.053 113.991 828.262 100.305C827.471 86.6186 830.753 73.0004 837.693 61.1732C844.632 49.346 854.917 39.8413 867.247 33.8617C883.761 25.8526 902.768 24.7295 920.092 30.739C937.417 36.7484 951.643 49.399 959.646 65.9124Z" fill="#1663B5"/>
<path d="M967.124 62.2873C973.099 74.6163 975.285 88.447 973.405 102.029C971.525 115.612 965.664 128.335 956.564 138.59C947.463 148.845 935.532 156.17 922.28 159.639C909.027 163.108 895.049 162.565 882.115 158.079C869.18 153.592 857.87 145.363 849.615 134.434C841.36 123.505 836.532 110.366 835.741 96.6795C834.95 82.9934 838.231 69.3753 845.171 57.5481C852.11 45.7208 862.396 36.2161 874.725 30.2365C891.24 22.2275 910.246 21.1043 927.571 27.1138C944.895 33.1232 959.121 45.7739 967.124 62.2873Z" fill="#1663B5"/>
<path opacity="0.4" d="M967.124 62.2873C973.099 74.6163 975.285 88.447 973.405 102.029C971.525 115.612 965.664 128.335 956.564 138.59C947.463 148.845 935.532 156.17 922.28 159.639C909.027 163.108 895.049 162.565 882.115 158.079C869.18 153.592 857.87 145.363 849.615 134.434C841.36 123.505 836.532 110.366 835.741 96.6795C834.95 82.9934 838.231 69.3753 845.171 57.5481C852.11 45.7208 862.396 36.2161 874.725 30.2365C891.24 22.2275 910.246 21.1043 927.571 27.1138C944.895 33.1232 959.121 45.7739 967.124 62.2873Z" fill="white"/>
<path d="M951.562 69.7441C956.044 78.955 957.697 89.2928 956.311 99.4507C954.924 109.609 950.562 119.13 943.774 126.813C936.987 134.495 928.079 139.993 918.177 142.611C908.275 145.229 897.823 144.851 888.143 141.523C878.462 138.195 869.988 132.067 863.791 123.914C857.595 115.762 853.953 105.95 853.328 95.7188C852.703 85.488 855.121 75.2978 860.278 66.4362C865.434 57.5745 873.098 50.4394 882.299 45.9328C888.413 42.9381 895.056 41.1786 901.846 40.7546C908.637 40.3307 915.443 41.2507 921.876 43.462C928.308 45.6734 934.241 49.1328 939.335 53.6424C944.428 58.152 948.583 63.6235 951.562 69.7441Z" fill="#1663B5"/>
<g opacity="0.3">
<path d="M877.319 98.5332L883.504 95.6776L874.917 76.7621L884.863 72.2003L903.91 86.5702L913.126 82.3588L904.561 63.3877L913.934 59.1107L922.499 78.0819L928.684 75.2262L930.766 79.7979L924.548 82.5749L925.605 84.9001L931.791 82.0444L933.817 86.5931L927.654 89.3931L936.767 109.242L927.495 113.43L907.281 98.579L897.898 102.722L907.077 122.728L897.704 127.005L888.637 107.045L882.474 109.844L880.3 105.496L886.542 102.663L885.461 100.393L879.299 103.193L877.319 98.5332ZM890.479 86.1773L892.877 91.4006L895.751 90.1103L890.479 86.1773ZM895.905 98.2516L902.696 95.1896L900.336 93.4998L894.904 95.9494L895.905 98.2516ZM910.947 91.4268L916.324 88.9543L915.299 86.7078L908.587 89.737L910.947 91.4268ZM920.938 98.7395L918.628 93.6177L915.81 94.9309L920.938 98.7395Z" fill="white"/>
</g>
</g>
<g clip-path="url(#clip2_131_4)">
<path d="M521.24 77.9069C528.032 89.7661 531.156 103.38 530.217 117.025C529.279 130.67 524.319 143.734 515.967 154.564C507.614 165.393 496.243 173.502 483.293 177.863C470.343 182.225 456.396 182.643 443.217 179.066C430.037 175.489 418.217 168.076 409.252 157.766C400.287 147.457 394.581 134.713 392.854 121.148C391.128 107.582 393.46 93.805 399.554 81.5591C405.648 69.3132 415.231 59.1489 427.09 52.3522C442.975 43.2489 461.812 40.827 479.465 45.6185C497.118 50.4099 512.142 62.0229 521.24 77.9069Z" fill="#1663B5"/>
<path d="M528.432 73.7864C535.224 85.6455 538.349 99.259 537.41 112.904C536.472 126.55 531.512 139.613 523.159 150.443C514.807 161.273 503.436 169.381 490.486 173.743C477.536 178.104 463.589 178.523 450.409 174.946C437.23 171.368 425.41 163.956 416.445 153.646C407.48 143.336 401.774 130.592 400.047 117.027C398.321 103.462 400.652 89.6845 406.747 77.4386C412.841 65.1926 422.424 55.0283 434.283 48.2317C450.168 39.1284 469.005 36.7065 486.658 41.4979C504.31 46.2894 519.335 57.9024 528.432 73.7864Z" fill="#1663B5"/>
<path opacity="0.4" d="M528.432 73.7864C535.224 85.6455 538.349 99.259 537.41 112.904C536.472 126.55 531.512 139.613 523.159 150.443C514.807 161.273 503.436 169.381 490.486 173.743C477.536 178.104 463.589 178.523 450.409 174.946C437.23 171.368 425.41 163.956 416.445 153.646C407.48 143.336 401.774 130.592 400.047 117.027C398.321 103.462 400.652 89.6845 406.747 77.4386C412.841 65.1926 422.424 55.0283 434.283 48.2317C450.168 39.1284 469.005 36.7065 486.658 41.4979C504.31 46.2894 519.335 57.9024 528.432 73.7864Z" fill="white"/>
<path d="M513.458 82.2748C518.55 91.1334 520.904 101.308 520.222 111.511C519.54 121.715 515.852 131.49 509.624 139.601C503.397 147.711 494.909 153.794 485.235 157.079C475.561 160.364 465.134 160.704 455.272 158.057C445.411 155.409 436.557 149.893 429.831 142.205C423.105 134.517 418.808 125.002 417.484 114.864C416.159 104.726 417.867 94.4193 422.39 85.2468C426.914 76.0744 434.05 68.4481 442.898 63.332C448.777 59.9323 455.266 57.7255 461.995 56.8376C468.723 55.9498 475.56 56.3983 482.113 58.1575C488.666 59.9167 494.807 62.9522 500.185 67.0904C505.563 71.2286 510.074 76.3884 513.458 82.2748Z" fill="#1663B5"/>
<g opacity="0.3">
<path d="M441.551 116.019L447.51 112.752L437.667 94.5181L447.251 89.2959L467.191 102.289L476.074 97.4657L466.249 79.1744L475.283 74.2751L485.108 92.5663L491.067 89.3001L493.453 93.7067L487.455 96.897L488.667 99.1383L494.626 95.872L496.955 100.26L491.014 103.469L501.445 122.596L492.506 127.4L471.371 114.008L462.318 118.775L472.824 138.054L463.79 142.953L453.397 123.712L447.457 126.921L444.996 122.742L451.012 119.495L449.781 117.311L443.841 120.52L441.551 116.019ZM453.799 102.82L456.544 107.853L459.315 106.372L453.799 102.82ZM460.027 114.463L466.575 110.95L464.111 109.43L458.873 112.241L460.027 114.463ZM474.527 106.639L479.709 103.81L478.535 101.644L472.063 105.119L474.527 106.639ZM484.972 113.231L482.322 108.292L479.607 109.793L484.972 113.231Z" fill="white"/>
</g>
</g>
<defs>
<clipPath id="clip0_131_4">
<rect width="1452" height="178" fill="white" transform="translate(-12 124)"/>
</clipPath>
<clipPath id="clip1_131_4">
<rect width="144.833" height="143.873" fill="white" transform="translate(807 133.892) rotate(-67.5867)"/>
</clipPath>
<clipPath id="clip2_131_4">
<rect width="144.471" height="143.514" fill="white" transform="translate(374 156.03) rotate(-71.5313)"/>
</clipPath>
</defs>
</svg>
