<svg width="57" height="57" viewBox="0 0 57 57" fill="none" xmlns="http://www.w3.org/2000/svg">
<g clip-path="url(#clip0_38_459)">
<path d="M28.5493 57.0001C36.3086 51.0128 38.4719 40.9921 35.1123 32.9625C33.2345 28.4772 30.1637 25.0554 25.8729 22.7685C21.582 20.4816 17.0362 19.8581 12.2134 20.7603V20.0195C12.2134 15.5035 12.2134 10.9881 12.2134 6.47332C12.2134 2.60978 14.8083 0.0170898 18.671 0.0170898C25.7732 0.0170898 32.8748 0.0170898 39.9759 0.0170898H40.7151V0.679703C40.7151 3.73792 40.7151 6.79047 40.7151 9.83735C40.7151 13.6924 43.3185 16.28 47.1897 16.2817H57.0001V16.9902C57.0001 28.1832 57.0001 39.3757 57.0001 50.5677C57.0001 54.3904 54.3949 56.995 50.5748 56.9967C43.493 56.9967 36.4123 56.9967 29.3328 56.9967L28.5493 57.0001ZM28.5629 12.2143C26.5713 12.2143 24.5779 12.2143 22.5846 12.2143C21.2812 12.2143 20.3754 13.0485 20.3584 14.2293C20.3414 15.4101 21.2659 16.28 22.5506 16.2817C26.5158 16.2885 30.481 16.2885 34.4461 16.2817C35.7325 16.2817 36.6553 15.4135 36.6434 14.2429C36.6315 13.0723 35.7156 12.2262 34.4172 12.2228C32.4579 12.2109 30.5138 12.2143 28.5629 12.2143ZM42.7135 26.4638C44.0492 26.4638 45.3849 26.4723 46.7206 26.4638C47.9561 26.4536 48.8601 25.5736 48.8533 24.4165C48.8465 23.2595 47.9374 22.4015 46.6934 22.3964C44.0651 22.3896 41.4367 22.3896 38.8084 22.3964C37.5577 22.3964 36.6553 23.2459 36.6451 24.4097C36.6349 25.5736 37.5509 26.457 38.8356 26.4638C40.1203 26.4706 41.422 26.4638 42.7135 26.4638ZM44.763 36.6426C45.4427 36.6426 46.1225 36.6545 46.8022 36.6426C47.0837 36.6677 47.3674 36.6341 47.6353 36.5438C47.9031 36.4535 48.1493 36.3085 48.3581 36.118C48.5669 35.9276 48.7338 35.6958 48.8483 35.4374C48.9627 35.179 49.0222 34.8996 49.0229 34.617C49.0236 34.3344 48.9655 34.0547 48.8524 33.7957C48.7392 33.5368 48.5735 33.3041 48.3656 33.1126C48.1578 32.9211 47.9123 32.7749 47.645 32.6832C47.3776 32.5916 47.0941 32.5565 46.8124 32.5803C45.4784 32.5616 44.1427 32.565 42.807 32.5803C41.6174 32.5939 40.7236 33.4688 40.7202 34.6055C40.7168 35.7421 41.6106 36.6205 42.7968 36.6443C43.4494 36.6528 44.1053 36.6426 44.763 36.6426ZM44.7935 46.8213C45.4495 46.8213 46.1072 46.8298 46.7648 46.8213C47.9544 46.7993 48.8499 45.926 48.8533 44.7961C48.8534 44.5254 48.7995 44.2573 48.6948 44.0076C48.59 43.7579 48.4366 43.5315 48.2435 43.3417C48.0503 43.1519 47.8213 43.0025 47.5698 42.9022C47.3182 42.8018 47.0492 42.7526 46.7784 42.7573C45.4427 42.7426 44.107 42.7426 42.7713 42.7573C42.4905 42.7335 42.2078 42.7682 41.9411 42.8591C41.6744 42.95 41.4294 43.0952 41.2216 43.2855C41.0138 43.4759 40.8477 43.7072 40.7338 43.9649C40.6199 44.2226 40.5607 44.5011 40.5599 44.7829C40.5591 45.0646 40.6166 45.3435 40.729 45.6019C40.8414 45.8602 41.0061 46.0925 41.2128 46.2841C41.4195 46.4756 41.6636 46.6222 41.9298 46.7147C42.196 46.8072 42.4785 46.8435 42.7594 46.8213C43.4358 46.8332 44.1155 46.8196 44.7935 46.8213Z" fill="#1663B5"/>
<path d="M32.57 40.7253C32.5836 49.6485 25.2848 56.9797 16.3683 57.0001C7.34468 57.0188 0.0187289 49.7521 3.59431e-05 40.7627C-0.018657 31.7732 7.25631 24.4522 16.2018 24.4284C18.3484 24.4181 20.476 24.8321 22.4621 25.6466C24.4482 26.4611 26.2537 27.6601 27.7748 29.1745C29.2959 30.689 30.5026 32.4891 31.3255 34.4714C32.1484 36.4537 32.5714 38.579 32.57 40.7253ZM22.4146 36.9399C22.3636 35.7863 21.9694 35.1508 21.1894 34.7822C20.8126 34.6016 20.388 34.5462 19.9775 34.6238C19.567 34.7014 19.192 34.9081 18.9071 35.2137C16.2018 37.9027 13.5032 40.6007 10.8114 43.3078C9.9617 44.1675 9.9617 45.3908 10.7587 46.2114C11.5557 47.032 12.8234 47.049 13.7071 46.1723C16.3989 43.4947 19.089 40.8204 21.7519 38.1122C22.1053 37.7452 22.2753 37.1914 22.4146 36.9399ZM20.3754 42.7539C19.9712 42.7495 19.5747 42.8654 19.2365 43.0867C18.8982 43.3081 18.6334 43.6249 18.4757 43.9971C18.318 44.3692 18.2744 44.7798 18.3506 45.1768C18.4268 45.5737 18.6192 45.939 18.9035 46.2264C19.1878 46.5137 19.5511 46.7101 19.9473 46.7906C20.3434 46.8711 20.7546 46.832 21.1285 46.6783C21.5024 46.5247 21.8222 46.2634 22.0473 45.9277C22.2723 45.5919 22.3925 45.1969 22.3925 44.7927C22.3926 44.2552 22.1803 43.7394 21.8019 43.3576C21.4235 42.9758 20.9096 42.7588 20.372 42.7539H20.3754ZM12.1743 34.6089C11.7699 34.6154 11.3766 34.7421 11.0444 34.9727C10.7122 35.2033 10.4561 35.5275 10.3086 35.904C10.1611 36.2805 10.1289 36.6923 10.2162 37.0872C10.3034 37.482 10.5061 37.842 10.7985 38.1213C11.0909 38.4007 11.4597 38.5868 11.8582 38.6561C12.2566 38.7253 12.6667 38.6746 13.0362 38.5102C13.4057 38.3459 13.718 38.0754 13.9334 37.7332C14.1488 37.3909 14.2575 36.9924 14.2458 36.5882C14.2302 36.0522 14.0041 35.5439 13.6163 35.1735C13.2286 34.803 12.7105 34.6001 12.1743 34.6089Z" fill="#00CF5F"/>
<path d="M55.5079 12.2108C52.6445 12.2108 49.6774 12.2278 46.712 12.2006C46.2145 12.1943 45.7386 11.9966 45.3832 11.6485C45.0278 11.3004 44.8202 10.8288 44.8036 10.3317C44.7696 7.34651 44.7917 4.36135 44.7917 1.49683L55.5079 12.2108Z" fill="#1663B5"/>
</g>
<defs>
<clipPath id="clip0_38_459">
<rect width="57" height="57" fill="white"/>
</clipPath>
</defs>
</svg>
